<svg xmlns="http://www.w3.org/2000/svg" width="119" height="113" viewBox="0 0 119 113" fill="none">
  <g style="mix-blend-mode:darken" filter="url(#filter0_f_80_589)">
    <circle cx="68.5" cy="53.5" r="29.5" fill="url(#paint0_radial_80_589)"/>
  </g>
  <g style="mix-blend-mode:darken" filter="url(#filter1_f_80_589)">
    <ellipse cx="54" cy="61" rx="44" ry="42" fill="url(#paint1_radial_80_589)"/>
  </g>
  <g filter="url(#filter2_f_80_589)">
    <ellipse cx="52.0696" cy="48.4994" rx="37.5505" ry="32.3381" transform="rotate(-32.7008 52.0696 48.4994)" fill="url(#paint2_radial_80_589)"/>
  </g>
  <g filter="url(#filter3_d_80_589)">
    <path d="M62.5276 40.3617C62.6831 39.9135 63.3169 39.9135 63.4724 40.3617L66.9761 50.4616C67.0239 50.5993 67.1294 50.7093 67.2649 50.7628L76.8217 54.5349C77.2436 54.7014 77.2436 55.2986 76.8217 55.4651L67.2649 59.2372C67.1294 59.2907 67.0239 59.4007 66.9761 59.5384L63.4724 69.6383C63.3169 70.0865 62.6831 70.0865 62.5276 69.6383L59.0239 59.5384C58.9761 59.4007 58.8706 59.2907 58.7351 59.2372L49.1783 55.4651C48.7564 55.2986 48.7564 54.7014 49.1783 54.5349L58.7351 50.7628C58.8706 50.7093 58.9761 50.5993 59.0239 50.4616L62.5276 40.3617Z" fill="white"/>
  </g>
  <defs>
    <filter id="filter0_f_80_589" x="29" y="14" width="79" height="79" filterUnits="userSpaceOnUse" color-interpolation-filters="sRGB">
      <feFlood flood-opacity="0" result="BackgroundImageFix"/>
      <feBlend mode="normal" in="SourceGraphic" in2="BackgroundImageFix" result="shape"/>
      <feGaussianBlur stdDeviation="5" result="effect1_foregroundBlur_80_589"/>
    </filter>
    <filter id="filter1_f_80_589" x="0" y="9" width="108" height="104" filterUnits="userSpaceOnUse" color-interpolation-filters="sRGB">
      <feFlood flood-opacity="0" result="BackgroundImageFix"/>
      <feBlend mode="normal" in="SourceGraphic" in2="BackgroundImageFix" result="shape"/>
      <feGaussianBlur stdDeviation="5" result="effect1_foregroundBlur_80_589"/>
    </filter>
    <filter id="filter2_f_80_589" x="5.95605" y="4.55493" width="92.2271" height="87.8889" filterUnits="userSpaceOnUse" color-interpolation-filters="sRGB">
      <feFlood flood-opacity="0" result="BackgroundImageFix"/>
      <feBlend mode="normal" in="SourceGraphic" in2="BackgroundImageFix" result="shape"/>
      <feGaussianBlur stdDeviation="5" result="effect1_foregroundBlur_80_589"/>
    </filter>
    <filter id="filter3_d_80_589" x="38.8618" y="30.0256" width="48.2764" height="49.9487" filterUnits="userSpaceOnUse" color-interpolation-filters="sRGB">
      <feFlood flood-opacity="0" result="BackgroundImageFix"/>
      <feColorMatrix in="SourceAlpha" type="matrix" values="0 0 0 0 0 0 0 0 0 0 0 0 0 0 0 0 0 0 127 0" result="hardAlpha"/>
      <feOffset/>
      <feGaussianBlur stdDeviation="5"/>
      <feComposite in2="hardAlpha" operator="out"/>
      <feColorMatrix type="matrix" values="0 0 0 0 0.848456 0 0 0 0 0.815793 0 0 0 0 0.148024 0 0 0 1 0"/>
      <feBlend mode="normal" in2="BackgroundImageFix" result="effect1_dropShadow_80_589"/>
      <feBlend mode="normal" in="SourceGraphic" in2="effect1_dropShadow_80_589" result="shape"/>
    </filter>
    <radialGradient id="paint0_radial_80_589" cx="0" cy="0" r="1" gradientTransform="matrix(-22.125 -11.8 11.8 -27.147 74.2361 57.1308)" gradientUnits="userSpaceOnUse">
      <stop stop-color="#44AEFF"/>
      <stop offset="0.639423" stop-color="#44AEFF" stop-opacity="0.2"/>
    </radialGradient>
    <radialGradient id="paint1_radial_80_589" cx="0" cy="0" r="1" gradientTransform="matrix(-33 -16.8 17.6 -38.6499 62.5556 66.1692)" gradientUnits="userSpaceOnUse">
      <stop stop-color="#4BFF33"/>
      <stop offset="0.456731" stop-color="#DDFFB9" stop-opacity="0.8"/>
      <stop offset="1" stop-color="white"/>
    </radialGradient>
    <radialGradient id="paint2_radial_80_589" cx="0" cy="0" r="1" gradientTransform="matrix(0.063753 32.3381 -37.5505 0.0549034 52.0696 48.4994)" gradientUnits="userSpaceOnUse">
      <stop offset="0.201923" stop-color="#FFF100"/>
      <stop offset="1" stop-color="#F3FFC0" stop-opacity="0.5"/>
    </radialGradient>
  </defs>
</svg>