<svg width="144" height="128" viewBox="0 0 144 128" fill="none" xmlns="http://www.w3.org/2000/svg">
<g style="mix-blend-mode:darken" filter="url(#filter0_f_333_899)">
<circle cx="84.7272" cy="58.3635" r="32.1818" fill="url(#paint0_radial_333_899)"/>
</g>
<g style="mix-blend-mode:darken" filter="url(#filter1_f_333_899)">
<ellipse cx="63.4545" cy="62.1819" rx="53.4545" ry="51.2727" fill="url(#paint1_radial_333_899)"/>
</g>
<g filter="url(#filter2_f_333_899)">
<ellipse cx="66.8034" cy="52.9086" rx="40.9642" ry="35.2779" transform="rotate(-32.7008 66.8034 52.9086)" fill="url(#paint2_radial_333_899)"/>
</g>
<g filter="url(#filter3_d_333_899)">
<path d="M78.255 43.9071C78.4105 43.4589 79.0443 43.4589 79.1998 43.9071L83.0718 55.0687C83.1196 55.2064 83.2251 55.3164 83.3606 55.3699L93.9127 59.5349C94.3346 59.7014 94.3346 60.2985 93.9127 60.465L83.3606 64.63C83.2251 64.6835 83.1196 64.7935 83.0718 64.9312L79.1998 76.0928C79.0443 76.541 78.4105 76.541 78.255 76.0928L74.383 64.9312C74.3352 64.7935 74.2297 64.6835 74.0942 64.63L63.5421 60.465C63.1202 60.2985 63.1202 59.7014 63.5421 59.5349L74.0942 55.3699C74.2297 55.3164 74.3352 55.2064 74.383 55.0687L78.255 43.9071Z" fill="white"/>
</g>
<defs>
<filter id="filter0_f_333_899" x="42.5454" y="16.1816" width="84.3638" height="84.3635" filterUnits="userSpaceOnUse" color-interpolation-filters="sRGB">
<feFlood flood-opacity="0" result="BackgroundImageFix"/>
<feBlend mode="normal" in="SourceGraphic" in2="BackgroundImageFix" result="shape"/>
<feGaussianBlur stdDeviation="5" result="effect1_foregroundBlur_333_899"/>
</filter>
<filter id="filter1_f_333_899" x="0" y="0.90918" width="126.909" height="122.545" filterUnits="userSpaceOnUse" color-interpolation-filters="sRGB">
<feFlood flood-opacity="0" result="BackgroundImageFix"/>
<feBlend mode="normal" in="SourceGraphic" in2="BackgroundImageFix" result="shape"/>
<feGaussianBlur stdDeviation="5" result="effect1_foregroundBlur_333_899"/>
</filter>
<filter id="filter2_f_333_899" x="17.4067" y="5.87842" width="98.7935" height="94.0603" filterUnits="userSpaceOnUse" color-interpolation-filters="sRGB">
<feFlood flood-opacity="0" result="BackgroundImageFix"/>
<feBlend mode="normal" in="SourceGraphic" in2="BackgroundImageFix" result="shape"/>
<feGaussianBlur stdDeviation="5" result="effect1_foregroundBlur_333_899"/>
</filter>
<filter id="filter3_d_333_899" x="53.2256" y="33.571" width="51.0034" height="52.8579" filterUnits="userSpaceOnUse" color-interpolation-filters="sRGB">
<feFlood flood-opacity="0" result="BackgroundImageFix"/>
<feColorMatrix in="SourceAlpha" type="matrix" values="0 0 0 0 0 0 0 0 0 0 0 0 0 0 0 0 0 0 127 0" result="hardAlpha"/>
<feOffset/>
<feGaussianBlur stdDeviation="5"/>
<feComposite in2="hardAlpha" operator="out"/>
<feColorMatrix type="matrix" values="0 0 0 0 0.848456 0 0 0 0 0.815793 0 0 0 0 0.148024 0 0 0 1 0"/>
<feBlend mode="normal" in2="BackgroundImageFix" result="effect1_dropShadow_333_899"/>
<feBlend mode="normal" in="SourceGraphic" in2="effect1_dropShadow_333_899" result="shape"/>
</filter>
<radialGradient id="paint0_radial_333_899" cx="0" cy="0" r="1" gradientTransform="matrix(-24.1364 -12.8727 12.8727 -29.6149 90.9848 62.3243)" gradientUnits="userSpaceOnUse">
<stop stop-color="#6FC0FF"/>
<stop offset="0.639423" stop-color="#8ECEFF" stop-opacity="0.2"/>
</radialGradient>
<radialGradient id="paint1_radial_333_899" cx="0" cy="0" r="1" gradientTransform="matrix(-40.0909 -20.5091 21.3818 -47.183 73.8485 68.4924)" gradientUnits="userSpaceOnUse">
<stop stop-color="#4BFF33"/>
<stop offset="0.456731" stop-color="#DDFFB9" stop-opacity="0.8"/>
<stop offset="1" stop-color="white"/>
</radialGradient>
<radialGradient id="paint2_radial_333_899" cx="0" cy="0" r="1" gradientTransform="matrix(0.0695487 35.2779 -40.9642 0.0598946 66.8034 52.9086)" gradientUnits="userSpaceOnUse">
<stop offset="0.201923" stop-color="#FFF100"/>
<stop offset="1" stop-color="#F3FFC0" stop-opacity="0.5"/>
</radialGradient>
</defs>
</svg>
