<svg width="14" height="14" viewBox="0 0 14 14" fill="none" xmlns="http://www.w3.org/2000/svg">
<path d="M4.89831 0.95044C5.01911 0.623958 5.48089 0.623958 5.60169 0.95044L6.60814 3.67031C6.64612 3.77295 6.72705 3.85388 6.82969 3.89186L9.54956 4.89831C9.87604 5.01911 9.87604 5.48089 9.54956 5.60169L6.82969 6.60814C6.72705 6.64612 6.64612 6.72705 6.60814 6.82969L5.60169 9.54956C5.48089 9.87604 5.01911 9.87604 4.89831 9.54956L3.89186 6.82969C3.85388 6.72705 3.77295 6.64612 3.67031 6.60814L0.95044 5.60169C0.623958 5.48089 0.623958 5.01911 0.95044 4.89831L3.67031 3.89186C3.77295 3.85388 3.85388 3.77295 3.89186 3.67031L4.89831 0.95044Z" fill="url(#paint0_linear_333_934)"/>
<path d="M10.1483 7.95044C10.2691 7.62396 10.7309 7.62396 10.8517 7.95044L11.3855 9.39297C11.4235 9.49561 11.5044 9.57654 11.607 9.61452L13.0496 10.1483C13.376 10.2691 13.376 10.7309 13.0496 10.8517L11.607 11.3855C11.5044 11.4235 11.4235 11.5044 11.3855 11.607L10.8517 13.0496C10.7309 13.376 10.2691 13.376 10.1483 13.0496L9.61452 11.607C9.57654 11.5044 9.49561 11.4235 9.39297 11.3855L7.95044 10.8517C7.62396 10.7309 7.62396 10.2691 7.95044 10.1483L9.39297 9.61452C9.49561 9.57654 9.57654 9.49561 9.61452 9.39297L10.1483 7.95044Z" fill="url(#paint1_linear_333_934)"/>
<defs>
<linearGradient id="paint0_linear_333_934" x1="1.3125" y1="5.25" x2="8.3125" y2="6.125" gradientUnits="userSpaceOnUse">
<stop stop-color="#1DDDB5"/>
<stop offset="1" stop-color="#5062FF"/>
</linearGradient>
<linearGradient id="paint1_linear_333_934" x1="10.5" y1="7" x2="10.5" y2="14" gradientUnits="userSpaceOnUse">
<stop stop-color="#5062F0"/>
<stop offset="1" stop-color="#5F29FF"/>
</linearGradient>
</defs>
</svg>
