<svg xmlns="http://www.w3.org/2000/svg" width="112" height="22" viewBox="0 0 112 22" fill="none">
  <path fill-rule="evenodd" clip-rule="evenodd" d="M3.31042 17.0956C3.5279 17.0956 3.69704 16.9522 3.69704 16.737V10.8073C3.69704 9.25316 4.47028 8.44022 5.75095 8.44022C7.05579 8.44022 7.73238 9.25316 7.73238 10.8073V16.737C7.73238 16.9522 7.90152 17.0956 8.11899 17.0956H11.0428C11.2603 17.0956 11.4294 16.9522 11.4294 16.737V9.94655C11.4294 6.88607 9.64131 5.09282 7.17661 5.09282C5.50932 5.09282 4.37363 5.90576 3.69704 7.07735V0.358649C3.69704 0.14346 3.5279 0 3.31042 0H0.362455C0.144982 0 0 0.14346 0 0.358649V16.737C0 16.9522 0.144982 17.0956 0.362455 17.0956H3.31042ZM18.791 17.3825C20.4824 17.3825 21.6906 16.7131 22.488 15.6132L22.5364 16.737C22.5364 16.9522 22.7055 17.0956 22.923 17.0956H25.581C25.7984 17.0956 25.9918 16.9522 25.9918 16.737V5.73839C25.9918 5.5232 25.8226 5.37974 25.6051 5.37974H22.923C22.7055 5.37974 22.5364 5.5232 22.5364 5.73839L22.488 6.86216C21.7148 5.7623 20.5066 5.09282 18.791 5.09282C15.5047 5.09282 13.2333 7.77074 13.2333 11.2377C13.2333 14.7285 15.5047 17.3825 18.791 17.3825ZM16.8337 11.2377C16.8337 12.9592 18.0177 14.0591 19.5884 14.0591C21.2073 14.0591 22.3189 12.9353 22.3189 11.2138C22.3189 9.54008 21.2073 8.41631 19.5884 8.41631C18.0177 8.41631 16.8337 9.54008 16.8337 11.2377ZM31.7102 21.6385C31.9277 21.6385 32.0968 21.4951 32.0968 21.2799V15.8762C32.87 16.8326 34.0057 17.3825 35.5522 17.3825C38.8626 17.3825 41.134 14.7285 41.134 11.2377C41.134 7.77074 38.8626 5.09282 35.5522 5.09282C33.8366 5.09282 32.6284 5.7623 31.8552 6.88607L31.8068 5.73839C31.8068 5.5232 31.6377 5.37974 31.4202 5.37974H28.7381C28.5206 5.37974 28.3756 5.5232 28.3756 5.73839V21.2799C28.3756 21.4951 28.5206 21.6385 28.7381 21.6385H31.7102ZM32.0485 11.2138C32.0485 12.9353 33.1358 14.0591 34.7548 14.0591C36.3255 14.0591 37.5095 12.9592 37.5095 11.2377C37.5095 9.54008 36.3255 8.41631 34.7548 8.41631C33.1358 8.41631 32.0485 9.54008 32.0485 11.2138ZM46.2484 21.6385C46.4658 21.6385 46.635 21.4951 46.635 21.2799V15.8762C47.4082 16.8326 48.5439 17.3825 50.0904 17.3825C53.4008 17.3825 55.6722 14.7285 55.6722 11.2377C55.6722 7.77074 53.4008 5.09282 50.0904 5.09282C48.3748 5.09282 47.1666 5.7623 46.3933 6.88607L46.345 5.73839C46.345 5.5232 46.1759 5.37974 45.9584 5.37974H43.2762C43.0588 5.37974 42.9138 5.5232 42.9138 5.73839V21.2799C42.9138 21.4951 43.0588 21.6385 43.2762 21.6385H46.2484ZM46.5867 11.2138C46.5867 12.9353 47.674 14.0591 49.293 14.0591C50.8636 14.0591 52.0476 12.9592 52.0476 11.2377C52.0476 9.54008 50.8636 8.41631 49.293 8.41631C47.674 8.41631 46.5867 9.54008 46.5867 11.2138ZM61.9222 21.6385C62.1156 21.6385 62.2847 21.5429 62.3572 21.3516L68.6397 5.78621C68.7364 5.5232 68.5914 5.37974 68.3256 5.37974H65.3293C65.136 5.37974 64.9427 5.47538 64.8702 5.66666L62.2605 12.8397L59.6509 5.66666C59.5784 5.47538 59.3851 5.37974 59.1917 5.37974H56.1954C55.9296 5.37974 55.7847 5.5232 55.8813 5.78621L60.4724 17.1195L58.7326 21.2081C58.6118 21.4951 58.7568 21.6385 59.0468 21.6385H61.9222ZM77.3786 14.6568V16.6413C77.3786 17.2391 76.0738 17.3825 75.2522 17.3825C73.295 17.3825 71.4344 16.4979 71.4344 13.7721V8.20112H69.9604C69.7429 8.20112 69.5979 8.05766 69.5979 7.84247V5.73839C69.5979 5.5232 69.7429 5.37974 69.9604 5.37974H71.4344V2.63009C71.4344 2.41491 71.6035 2.27145 71.821 2.27145H74.7931C75.0106 2.27145 75.1797 2.41491 75.1797 2.63009V5.37974H76.992C77.2095 5.37974 77.3545 5.5232 77.3545 5.73839V7.84247C77.3545 8.05766 77.2095 8.20112 76.992 8.20112H75.1797V13.3657C75.1797 14.0112 75.5905 14.346 76.1946 14.346C76.4121 14.346 76.6296 14.346 76.9437 14.3221C77.1853 14.2982 77.3786 14.4177 77.3786 14.6568ZM83.8703 17.3825C85.5618 17.3825 86.7699 16.7131 87.5673 15.6132L87.6157 16.737C87.6157 16.9522 87.7848 17.0956 88.0023 17.0956H90.6603C90.8778 17.0956 91.0711 16.9522 91.0711 16.737V5.73839C91.0711 5.5232 90.9019 5.37974 90.6845 5.37974H88.0023C87.7848 5.37974 87.6157 5.5232 87.6157 5.73839L87.5673 6.86216C86.7941 5.7623 85.5859 5.09282 83.8703 5.09282C80.584 5.09282 78.3127 7.77074 78.3127 11.2377C78.3127 14.7285 80.584 17.3825 83.8703 17.3825ZM81.9131 11.2377C81.9131 12.9592 83.0971 14.0591 84.6677 14.0591C86.2867 14.0591 87.3982 12.9353 87.3982 11.2138C87.3982 9.54008 86.2867 8.41631 84.6677 8.41631C83.0971 8.41631 81.9131 9.54008 81.9131 11.2377ZM96.7895 17.0956C97.007 17.0956 97.1762 16.9522 97.1762 16.737V0.358649C97.1762 0.143459 97.007 0 96.7895 0H93.8174C93.5999 0 93.4549 0.143459 93.4549 0.358649V16.737C93.4549 16.9522 93.5999 17.0956 93.8174 17.0956H96.7895ZM103.281 16.737C103.281 16.9522 103.112 17.0956 102.895 17.0956H99.9225C99.705 17.0956 99.56 16.9522 99.56 16.737V0.358649C99.56 0.143459 99.705 0 99.9225 0H102.895C103.112 0 103.281 0.143459 103.281 0.358649V9.75526L106.785 5.57102C106.906 5.42756 107.051 5.37974 107.22 5.37974H110.554C110.893 5.37974 110.965 5.57102 110.772 5.83403L106.833 10.3052L111.4 16.6413C111.569 16.9043 111.473 17.0956 111.183 17.0956H107.993C107.8 17.0956 107.679 17.0478 107.558 16.8804L104.61 12.8636L103.281 14.3699V16.737Z" fill="currentColor"/>
</svg>