<svg width="24" height="26" viewBox="0 0 24 26" fill="none" xmlns="http://www.w3.org/2000/svg">
<path d="M6.82001 3.40151C6.94255 2.45427 6.61366 1.63212 6.08541 1.56519C5.55717 1.49826 5.0296 2.21191 4.90706 3.15915C4.78452 4.1064 5.11341 4.92855 5.64166 4.99548C6.16991 5.0624 6.69747 4.34876 6.82001 3.40151Z" fill="#93CE65"/>
<path d="M5.51351 5.60702C5.58462 5.04645 4.72781 4.47841 3.59978 4.33826C2.47175 4.19811 1.49965 4.53892 1.42855 5.09949C1.35745 5.66006 2.21426 6.2281 3.34229 6.36825C4.47032 6.5084 5.44241 6.16758 5.51351 5.60702Z" fill="#416BF4"/>
<path d="M5.49517 5.21572C5.70537 4.90781 5.71936 3.80539 4.96989 3.03353C4.22042 2.26166 3.24046 1.98722 2.7811 2.42055C2.32173 2.85387 2.55691 3.83087 3.30638 4.60274C4.05585 5.3746 5.16376 5.47355 5.49517 5.21572Z" fill="#FFC736"/>
<path d="M12.3411 24.7557C18.78 24.7557 23.9998 19.6109 23.9998 13.2644C23.9998 6.91789 18.78 1.77304 12.3411 1.77304C5.90215 1.77304 0.682373 6.91789 0.682373 13.2644C0.682373 19.6109 5.90215 24.7557 12.3411 24.7557Z" fill="white"/>
<path opacity="0.3" fill-rule="evenodd" clip-rule="evenodd" d="M10.1651 20.5095L4.60995 23.2837C4.50263 23.3374 4.38279 23.3623 4.26246 23.3558C4.14214 23.3494 4.02561 23.3118 3.9246 23.2468C3.82359 23.1819 3.74165 23.0919 3.68708 22.986C3.63251 22.88 3.60721 22.7618 3.61373 22.6433L3.75477 20.0517C3.75819 19.9914 3.77431 19.9324 3.80214 19.8786C3.82998 19.8248 3.86888 19.7774 3.9164 19.7393C3.96392 19.7011 4.01901 19.6732 4.07814 19.6573C4.13726 19.6413 4.19913 19.6377 4.25981 19.6466L10.1651 20.5095Z" fill="white"/>
<path fill-rule="evenodd" clip-rule="evenodd" d="M3.80124 15.3175L1.63789 21.0738C1.59603 21.1848 1.58464 21.3047 1.60489 21.4214C1.62515 21.5381 1.67632 21.6474 1.75323 21.7384C1.83014 21.8294 1.93007 21.8988 2.04293 21.9396C2.1558 21.9804 2.2776 21.9911 2.39603 21.9707L6.42086 20.7496C6.48122 20.7394 6.53873 20.717 6.58975 20.6837C6.64078 20.6503 6.68417 20.6069 6.71714 20.5561C6.75012 20.5053 6.77198 20.4482 6.78126 20.3886C6.79055 20.329 6.78707 20.2682 6.77108 20.21L3.80124 15.3175Z" fill="white"/>
<path d="M21.3861 10.3439C21.5179 13.6221 18.1601 16.4149 13.8861 16.5819C9.61215 16.7489 6.04053 14.2268 5.90868 10.9486C5.77683 7.67046 8.90202 4.34121 13.4396 4.15609C18.2252 3.79259 21.2542 7.06569 21.3861 10.3439Z" fill="#E9E9E9"/>
<path fill-rule="evenodd" clip-rule="evenodd" d="M10.1189 7.26001C11.2004 7.05306 12.2763 8.02896 12.5203 9.43416C12.7642 10.8394 12.0868 12.1536 11.0087 12.3608C9.93065 12.5681 8.85137 11.5919 8.60768 10.1832C8.36399 8.77455 9.04113 7.46376 10.1189 7.26001Z" fill="white"/>
<ellipse cx="1.23116" cy="1.66561" rx="1.23116" ry="1.66561" transform="matrix(0.987443 -0.158271 0.162778 0.986614 9.52002 8.11864)" fill="black"/>
<path d="M11.8008 8.8635C11.7479 8.6598 11.5679 8.52928 11.3988 8.57198C11.2297 8.61467 11.1355 8.81441 11.1884 9.01811C11.2414 9.22181 11.4214 9.35232 11.5905 9.30963C11.7596 9.26693 11.8537 9.0672 11.8008 8.8635Z" fill="white" fill-opacity="0.9"/>
<path fill-rule="evenodd" clip-rule="evenodd" d="M17.0536 6.68114C17.9759 6.49915 18.9037 7.32405 19.1244 8.51885C19.3451 9.71365 18.7673 10.8352 17.845 11.0172C16.9227 11.1992 15.992 10.3741 15.7744 9.17656C15.5568 7.97902 16.1287 6.85996 17.0536 6.68114Z" fill="white"/>
<ellipse cx="0.954532" cy="1.43315" rx="0.954532" ry="1.43315" transform="matrix(0.983539 -0.186363 0.19123 0.980461 16.6282 7.42329)" fill="black"/>
<path d="M18.4096 8.00515C18.3585 7.81796 18.1997 7.69735 18.0549 7.73577C17.91 7.77418 17.834 7.95707 17.8851 8.14427C17.9362 8.33146 18.0951 8.45206 18.2399 8.41364C18.3848 8.37523 18.4607 8.19234 18.4096 8.00515Z" fill="white" fill-opacity="0.9"/>
<g clip-path="url(#clip0_288_710)">
<path d="M13.1691 14.6658C12.5414 14.3367 12.0367 13.818 11.7285 13.1855C11.4676 12.6 11.8608 12.1953 12.3088 12.1115L17.1585 11.4066C17.4806 11.3894 18.1051 11.5381 18.0261 12.2703C17.9151 12.9637 17.5828 13.604 17.0776 14.0978C16.5724 14.5916 15.9207 14.913 15.2175 15.0152C14.5144 15.1174 13.7967 14.995 13.1691 14.6658Z" fill="#EAA292"/>
<path d="M13.8137 12.8657C13.1531 12.9618 12.5495 13.2894 12.1131 13.7886C12.6508 14.4664 13.4359 14.9089 14.3002 15.0214C15.1645 15.1338 16.039 14.9073 16.7363 14.3902C16.4765 13.8622 16.0531 13.4297 15.5276 13.1555C15.0021 12.8814 14.4017 12.7798 13.8137 12.8657Z" fill="#D85030"/>
</g>
<path d="M10.5745 16.3714C9.986 17.1401 8.37175 16.9175 6.96897 15.8742C5.56618 14.8309 4.90608 13.3619 5.49458 12.5932C6.08308 11.8245 7.9327 11.7829 9.33548 12.8262C10.7383 13.8695 11.163 15.6026 10.5745 16.3714Z" fill="white"/>
<ellipse cx="1.79595" cy="1.30882" rx="1.79595" ry="1.30882" transform="matrix(0.308285 -0.95138 0.953777 0.300252 19.4603 13.0307)" fill="white"/>
<defs>
<clipPath id="clip0_288_710">
<rect width="6.04093" height="4.31676" fill="white" transform="matrix(0.966784 0.255327 -0.261428 0.965295 12.3802 10.0803)"/>
</clipPath>
</defs>
</svg>
