<svg viewBox="0 0 371 72" fill="none" xmlns="http://www.w3.org/2000/svg">
<path fill-rule="evenodd" clip-rule="evenodd" d="M11.0151 56.884C11.7387 56.884 12.3015 56.4066 12.3015 55.6906V35.9602C12.3015 30.7889 14.8744 28.084 19.1357 28.084C23.4774 28.084 25.7287 30.7889 25.7287 35.9602V55.6906C25.7287 56.4066 26.2915 56.884 27.0151 56.884H36.7438C37.4674 56.884 38.0302 56.4066 38.0302 55.6906V33.0961C38.0302 22.9127 32.0805 16.9459 23.8795 16.9459C18.3317 16.9459 14.5528 19.6508 12.3015 23.5492V1.19337C12.3015 0.477348 11.7387 0 11.0151 0H1.20603C0.482413 0 0 0.477348 0 1.19337V55.6906C0 56.4066 0.482413 56.884 1.20603 56.884H11.0151ZM62.5255 57.8387C68.1536 57.8387 72.1738 55.611 74.827 51.9514L74.9878 55.6906C74.9878 56.4066 75.5506 56.884 76.2743 56.884H85.1185C85.8421 56.884 86.4853 56.4066 86.4853 55.6906V19.0939C86.4853 18.3779 85.9225 17.9005 85.1989 17.9005H76.2743C75.5506 17.9005 74.9878 18.3779 74.9878 19.0939L74.827 22.8331C72.2542 19.1735 68.234 16.9458 62.5255 16.9458C51.5908 16.9458 44.033 25.8563 44.033 37.3923C44.033 49.0077 51.5908 57.8387 62.5255 57.8387ZM56.0119 37.3923C56.0119 43.1204 59.9517 46.7801 65.1778 46.7801C70.5647 46.7801 74.2632 43.0409 74.2632 37.3127C74.2632 31.7436 70.5647 28.0044 65.1778 28.0044C59.9517 28.0044 56.0119 31.7436 56.0119 37.3923ZM105.512 72C106.236 72 106.799 71.5226 106.799 70.8066V52.8265C109.372 56.0088 113.15 57.8387 118.296 57.8387C129.311 57.8387 136.869 49.0077 136.869 37.3923C136.869 25.8563 129.311 16.9458 118.296 16.9458C112.588 16.9458 108.568 19.1735 105.995 22.9127L105.834 19.0939C105.834 18.3779 105.271 17.9005 104.547 17.9005H95.6228C94.8992 17.9005 94.4168 18.3779 94.4168 19.0939V70.8066C94.4168 71.5226 94.8992 72 95.6228 72H105.512ZM106.638 37.3127C106.638 43.0409 110.256 46.7801 115.643 46.7801C120.869 46.7801 124.809 43.1204 124.809 37.3923C124.809 31.7436 120.869 28.0044 115.643 28.0044C110.256 28.0044 106.638 31.7436 106.638 37.3127ZM153.886 72C154.61 72 155.173 71.5226 155.173 70.8066V52.8265C157.746 56.0088 161.524 57.8387 166.67 57.8387C177.685 57.8387 185.243 49.0077 185.243 37.3923C185.243 25.8563 177.685 16.9458 166.67 16.9458C160.962 16.9458 156.942 19.1735 154.369 22.9127L154.208 19.0939C154.208 18.3779 153.645 17.9005 152.921 17.9005H143.997C143.273 17.9005 142.791 18.3779 142.791 19.0939V70.8066C142.791 71.5226 143.273 72 143.997 72H153.886ZM155.012 37.3127C155.012 43.0409 158.63 46.7801 164.017 46.7801C169.243 46.7801 173.183 43.1204 173.183 37.3923C173.183 31.7436 169.243 28.0044 164.017 28.0044C158.63 28.0044 155.012 31.7436 155.012 37.3127ZM206.04 72C206.683 72 207.246 71.6818 207.487 71.0453L228.391 19.253C228.713 18.3779 228.231 17.9006 227.346 17.9006H217.376C216.733 17.9006 216.09 18.2188 215.849 18.8553L207.165 42.7227L198.482 18.8553C198.241 18.2188 197.597 17.9006 196.954 17.9006H186.984C186.1 17.9006 185.617 18.3779 185.939 19.253L201.215 56.9635L195.426 70.568C195.024 71.5227 195.507 72 196.472 72H206.04ZM257.47 48.769V55.3723C257.47 57.3613 253.129 57.8386 250.395 57.8386C243.883 57.8386 237.692 54.895 237.692 45.8254V27.2884H232.787C232.063 27.2884 231.581 26.811 231.581 26.095V19.0939C231.581 18.3779 232.063 17.9005 232.787 17.9005H237.692V8.75135C237.692 8.03533 238.254 7.55798 238.978 7.55798H248.867C249.591 7.55798 250.154 8.03533 250.154 8.75135V17.9005H256.184C256.908 17.9005 257.39 18.3779 257.39 19.0939V26.095C257.39 26.811 256.908 27.2884 256.184 27.2884H250.154V44.4729C250.154 46.621 251.521 47.7348 253.531 47.7348C254.254 47.7348 254.978 47.7348 256.023 47.6552C256.827 47.5757 257.47 47.9735 257.47 48.769ZM279.07 57.8387C284.698 57.8387 288.718 55.611 291.371 51.9514L291.532 55.6906C291.532 56.4066 292.095 56.884 292.818 56.884H301.663C302.386 56.884 303.03 56.4066 303.03 55.6906V19.0939C303.03 18.3779 302.467 17.9005 301.743 17.9005H292.818C292.095 17.9005 291.532 18.3779 291.532 19.0939L291.371 22.8331C288.798 19.1735 284.778 16.9458 279.07 16.9458C268.135 16.9458 260.577 25.8563 260.577 37.3923C260.577 49.0077 268.135 57.8387 279.07 57.8387ZM272.558 37.3923C272.558 43.1204 276.497 46.7801 281.724 46.7801C287.111 46.7801 290.809 43.0409 290.809 37.3127C290.809 31.7436 287.111 28.0044 281.724 28.0044C276.497 28.0044 272.558 31.7436 272.558 37.3923ZM322.058 56.884C322.782 56.884 323.344 56.4066 323.344 55.6906V1.19337C323.344 0.477349 322.782 0 322.058 0H312.169C311.445 0 310.963 0.477349 310.963 1.19337V55.6906C310.963 56.4066 311.445 56.884 312.169 56.884H322.058ZM343.658 55.6906C343.658 56.4066 343.095 56.884 342.372 56.884H332.482C331.759 56.884 331.276 56.4066 331.276 55.6906V1.19337C331.276 0.477349 331.759 0 332.482 0H342.372C343.095 0 343.658 0.477349 343.658 1.19337V32.4597L355.316 18.537C355.719 18.0597 356.201 17.9005 356.764 17.9005H367.859C368.985 17.9005 369.226 18.537 368.583 19.4122L355.477 34.2895L370.673 55.3724C371.236 56.2475 370.915 56.884 369.95 56.884H359.337C358.693 56.884 358.291 56.7249 357.889 56.1679L348.08 42.8022L343.658 47.8144V55.6906Z" fill="#11181C"/>
</svg>
