<svg xmlns="http://www.w3.org/2000/svg" width="14" height="14" viewBox="0 0 14 14" fill="none">
  <path d="M12.4445 6.97224V11.139C12.4445 11.6915 12.2239 12.2214 11.8312 12.6121C11.4385 13.0028 10.9059 13.2223 10.3505 13.2223H7.41889C7.30782 13.2223 7.20129 13.1784 7.12275 13.1003C7.04421 13.0221 7.00009 12.9162 7.00009 12.8057C7.00009 12.6951 7.04421 12.5892 7.12275 12.511C7.20129 12.4329 7.30782 12.389 7.41889 12.389H10.3505C10.6837 12.389 11.0033 12.2573 11.2389 12.0229C11.4745 11.7884 11.6069 11.4705 11.6069 11.139H10.3505C10.0173 11.139 9.69771 11.0073 9.46209 10.7728C9.22647 10.5384 9.0941 10.2205 9.0941 9.88895V7.80558C9.0941 7.47406 9.22647 7.15611 9.46209 6.92169C9.69771 6.68726 10.0173 6.55557 10.3505 6.55557H11.5886C11.5093 5.68938 11.184 4.8635 10.6506 4.17441C10.1171 3.48532 9.39766 2.96145 8.57615 2.66401C7.75464 2.36657 6.86503 2.30783 6.01122 2.49466C5.1574 2.68148 4.37465 3.10615 3.75437 3.71907C2.98307 4.47632 2.50735 5.48163 2.41211 6.55557H3.64967C3.98289 6.55557 4.30246 6.68726 4.53809 6.92169C4.77371 7.15611 4.90608 7.47406 4.90608 7.80558V9.88895C4.90608 10.2205 4.77371 10.5384 4.53809 10.7728C4.30246 11.0073 3.98289 11.139 3.64967 11.139H2.81207C2.47885 11.139 2.15928 11.0073 1.92366 10.7728C1.68804 10.5384 1.55566 10.2205 1.55566 9.88895V6.97224C1.55684 5.89925 1.87794 4.85073 2.47834 3.9594C3.07873 3.06806 3.93142 2.37398 4.92848 1.965C5.92554 1.55603 7.02213 1.45055 8.07947 1.66192C9.13681 1.87328 10.1073 2.39199 10.8682 3.15239C11.3706 3.65464 11.7684 4.25058 12.0389 4.90606C12.3094 5.56154 12.4472 6.26367 12.4445 6.97224Z" fill="#52525B"/>
</svg>