<svg width="16" height="16" viewBox="0 0 16 16" fill="none" xmlns="http://www.w3.org/2000/svg">
<path fill-rule="evenodd" clip-rule="evenodd" d="M10.5098 13.2188C10.509 13.3879 10.4579 13.5529 10.3643 13.6934L9.90723 14.3858C9.74843 14.6254 9.48083 14.7696 9.19434 14.7696H7.54297C7.25633 14.7695 6.98881 14.6246 6.83008 14.3848L6.37207 13.6934C6.27903 13.5528 6.22893 13.3876 6.22852 13.2188L6.22754 12.1875H10.5098V13.2188ZM8.35352 1.00003C10.2042 0.9931 11.8877 2.07642 12.6553 3.76859C13.4228 5.46073 13.1323 7.44766 11.9131 8.84671C11.471 9.35364 10.7793 10.4133 10.5156 11.3067L10.5127 11.3272H6.22461C6.22432 11.3252 6.224 11.3233 6.22364 11.3213C6.22275 11.3166 6.22174 11.3114 6.22168 11.3067C5.95806 10.413 5.26636 9.35364 4.82422 8.84671C4.07138 7.9861 3.65667 6.87924 3.65821 5.73343C3.65821 3.23251 5.62355 1.00858 8.35352 1.00003ZM8.36817 2.72074C6.71353 2.72266 5.37287 4.07077 5.3711 5.73343C5.37123 5.97086 5.56255 6.16296 5.79883 6.16312C6.03525 6.16312 6.22741 5.97096 6.22754 5.73343C6.22887 4.54587 7.18635 3.58354 8.36817 3.58206C8.60467 3.58206 8.79688 3.38904 8.79688 3.1514C8.79684 2.91379 8.60464 2.72074 8.36817 2.72074Z" fill="#8A8A8E"/>
</svg>
