<svg width="280" height="184" viewBox="0 0 280 184" fill="none" xmlns="http://www.w3.org/2000/svg">
<path d="M96 6C96 2.68629 98.6863 0 102 0H130C133.314 0 136 2.68629 136 6V34C136 37.3137 133.314 40 130 40H102C98.6863 40 96 37.3137 96 34V6Z" fill="#A3A3A3" fill-opacity="0.23"/>
<path d="M102 0.5H130C133.038 0.5 135.5 2.96243 135.5 6V34C135.5 37.0376 133.038 39.5 130 39.5H102C98.9624 39.5 96.5 37.0376 96.5 34V6C96.5 2.96243 98.9624 0.5 102 0.5Z" stroke="#A3A3A3" stroke-opacity="0.23"/>
<path d="M107 14V13C107 11.8954 107.895 11 109 11H123C124.105 11 125 11.8954 125 13V14M107 26V27C107 28.1046 107.895 29 109 29H123C124.105 29 125 28.1046 125 27V26" stroke="#171717" stroke-opacity="0.9" stroke-width="2" stroke-linecap="round" stroke-linejoin="round"/>
<path d="M113 20H106M106 20L109 17M106 20L109 23M119 20H126M126 20L123 17M126 20L123 23" stroke="#171717" stroke-opacity="0.9" stroke-width="2" stroke-linecap="round" stroke-linejoin="round"/>
<path d="M113 20H106M106 20L109 17M106 20L109 23M119 20H126M126 20L123 17M126 20L123 23" stroke="#525252" stroke-width="2" stroke-linecap="round" stroke-linejoin="round"/>
<path d="M192 6C192 2.68629 194.686 0 198 0H226C229.314 0 232 2.68629 232 6V34C232 37.3137 229.314 40 226 40H198C194.686 40 192 37.3137 192 34V6Z" fill="#A3A3A3" fill-opacity="0.23"/>
<path d="M198 0.5H226C229.038 0.5 231.5 2.96243 231.5 6V34C231.5 37.0376 229.038 39.5 226 39.5H198C194.962 39.5 192.5 37.0376 192.5 34V6C192.5 2.96243 194.962 0.5 198 0.5Z" stroke="#A3A3A3" stroke-opacity="0.23"/>
<path d="M210 20H203M203 20L206 17M203 20L206 23M214 20H221M221 20L218 17M221 20L218 23M203 14V13C203 11.8954 203.895 11 205 11H219C220.105 11 221 11.8954 221 13V14M203 26V27C203 28.1046 203.895 29 205 29H219C220.105 29 221 28.1046 221 27V26" stroke="#171717" stroke-opacity="0.9" stroke-width="2" stroke-linecap="round" stroke-linejoin="round"/>
<path d="M210 20H203M203 20L206 17M203 20L206 23M214 20H221M221 20L218 17M221 20L218 23" stroke="#171717" stroke-opacity="0.9" stroke-width="2" stroke-linecap="round" stroke-linejoin="round"/>
<path d="M210 20H203M203 20L206 17M203 20L206 23M214 20H221M221 20L218 17M221 20L218 23" stroke="#525252" stroke-width="2" stroke-linecap="round" stroke-linejoin="round"/>
<circle cx="222" cy="30" r="7" fill="#171717" fill-opacity="0.9"/>
<circle cx="222" cy="30" r="7" fill="#7B8374"/>
<circle cx="222" cy="30" r="7" stroke="#E0E1E4" stroke-width="2"/>
<path d="M220 32L224 28L220 32Z" fill="#171717" fill-opacity="0.9"/>
<path d="M220 32L224 28" stroke="#171717" stroke-opacity="0.9" stroke-width="2" stroke-linecap="round" stroke-linejoin="round"/>
<path d="M220 29C220.552 29 221 28.5523 221 28C221 27.4477 220.552 27 220 27C219.448 27 219 27.4477 219 28C219 28.5523 219.448 29 220 29Z" fill="#171717" fill-opacity="0.9"/>
<path d="M224 33C224.552 33 225 32.5523 225 32C225 31.4477 224.552 31 224 31C223.448 31 223 31.4477 223 32C223 32.5523 223.448 33 224 33Z" fill="#171717" fill-opacity="0.9"/>
<path d="M240 6C240 2.68629 242.686 0 246 0H274C277.314 0 280 2.68629 280 6V34C280 37.3137 277.314 40 274 40H246C242.686 40 240 37.3137 240 34V6Z" fill="#A3A3A3" fill-opacity="0.23"/>
<path d="M246 0.5H274C277.038 0.5 279.5 2.96243 279.5 6V34C279.5 37.0376 277.038 39.5 274 39.5H246C242.962 39.5 240.5 37.0376 240.5 34V6C240.5 2.96243 242.962 0.5 246 0.5Z" stroke="#A3A3A3" stroke-opacity="0.23"/>
<path d="M264 18C264 19.0609 263.579 20.0783 262.828 20.8284C262.078 21.5786 261.061 22 260 22C258.939 22 257.922 21.5786 257.172 20.8284C256.421 20.0783 256 19.0609 256 18M251.103 14.034H268.897M251.4 13.467C251.14 13.8132 251 14.2343 251 14.667V28C251 28.5304 251.211 29.0391 251.586 29.4142C251.961 29.7893 252.47 30 253 30H267C267.53 30 268.039 29.7893 268.414 29.4142C268.789 29.0391 269 28.5304 269 28V14.667C269 14.2343 268.86 13.8132 268.6 13.467L266.6 10.8C266.414 10.5516 266.172 10.35 265.894 10.2111C265.617 10.0723 265.31 10 265 10H255C254.69 10 254.383 10.0723 254.106 10.2111C253.828 10.35 253.586 10.5516 253.4 10.8L251.4 13.467Z" stroke="#171717" stroke-opacity="0.9" stroke-width="2" stroke-linecap="round" stroke-linejoin="round"/>
<circle cx="270" cy="30" r="7" fill="#171717" fill-opacity="0.9"/>
<circle cx="270" cy="30" r="7" fill="#7B8374"/>
<circle cx="270" cy="30" r="7" stroke="#E0E1E4" stroke-width="2"/>
<path d="M268 32L272 28L268 32Z" fill="#171717" fill-opacity="0.9"/>
<path d="M268 32L272 28" stroke="#171717" stroke-opacity="0.9" stroke-width="2" stroke-linecap="round" stroke-linejoin="round"/>
<path d="M268 29C268.552 29 269 28.5523 269 28C269 27.4477 268.552 27 268 27C267.448 27 267 27.4477 267 28C267 28.5523 267.448 29 268 29Z" fill="#171717" fill-opacity="0.9"/>
<path d="M272 33C272.552 33 273 32.5523 273 32C273 31.4477 272.552 31 272 31C271.448 31 271 31.4477 271 32C271 32.5523 271.448 33 272 33Z" fill="#171717" fill-opacity="0.9"/>
<path d="M144 6C144 2.68629 146.686 0 150 0H178C181.314 0 184 2.68629 184 6V34C184 37.3137 181.314 40 178 40H150C146.686 40 144 37.3137 144 34V6Z" fill="#A3A3A3" fill-opacity="0.23"/>
<path d="M150 0.5H178C181.038 0.5 183.5 2.96243 183.5 6V34C183.5 37.0376 181.038 39.5 178 39.5H150C146.962 39.5 144.5 37.0376 144.5 34V6C144.5 2.96243 146.962 0.5 150 0.5Z" stroke="#A3A3A3" stroke-opacity="0.23"/>
<rect x="155" y="11" width="18" height="14" rx="3" stroke="#171717" stroke-opacity="0.9" stroke-width="2"/>
<rect x="162" y="28" width="4" height="4" rx="2" fill="#171717" fill-opacity="0.9"/>
<rect x="162" y="28" width="4" height="4" rx="2" fill="#525252"/>
<rect x="167" y="29" width="4" height="2" rx="1" fill="#171717" fill-opacity="0.9"/>
<rect x="157" y="29" width="4" height="2" rx="1" fill="#171717" fill-opacity="0.9"/>
<path d="M168 16H159M159 20H165" stroke="#171717" stroke-opacity="0.9" stroke-width="2" stroke-linecap="round" stroke-linejoin="round"/>
<path d="M168 16H159M159 20H165" stroke="#525252" stroke-width="2" stroke-linecap="round" stroke-linejoin="round"/>
<path d="M240 54C240 50.6863 242.686 48 246 48H274C277.314 48 280 50.6863 280 54V82C280 85.3137 277.314 88 274 88H246C242.686 88 240 85.3137 240 82V54Z" fill="#A3A3A3" fill-opacity="0.23"/>
<path d="M246 48.5H274C277.038 48.5 279.5 50.9624 279.5 54V82C279.5 85.0376 277.038 87.5 274 87.5H246C242.962 87.5 240.5 85.0376 240.5 82V54C240.5 50.9624 242.962 48.5 246 48.5Z" stroke="#A3A3A3" stroke-opacity="0.23"/>
<path d="M263.441 59.5L263.774 59.5127C264.535 59.57 265.192 59.8287 265.678 60.3076C266.233 60.856 266.5 61.6298 266.5 62.5293V69.4707C266.5 70.3702 266.233 71.144 265.678 71.6924C265.123 72.2398 264.344 72.5 263.441 72.5H256.537C255.641 72.5 254.866 72.2428 254.314 71.6953C253.763 71.1473 253.5 70.3733 253.5 69.4707V62.5293C253.5 61.6267 253.763 60.8527 254.314 60.3047C254.866 59.7572 255.641 59.5 256.537 59.5H263.441Z" fill="#171717" fill-opacity="0.9"/>
<path d="M263.441 59.5L263.774 59.5127C264.535 59.57 265.192 59.8287 265.678 60.3076C266.233 60.856 266.5 61.6298 266.5 62.5293V69.4707C266.5 70.3702 266.233 71.144 265.678 71.6924C265.123 72.2398 264.344 72.5 263.441 72.5H256.537C255.641 72.5 254.866 72.2428 254.314 71.6953C253.763 71.1473 253.5 70.3733 253.5 69.4707V62.5293C253.5 61.6267 253.763 60.8527 254.314 60.3047C254.866 59.7572 255.641 59.5 256.537 59.5H263.441Z" fill="#7B8374"/>
<path d="M263.441 59.5L263.774 59.5127C264.535 59.57 265.192 59.8287 265.678 60.3076C266.233 60.856 266.5 61.6298 266.5 62.5293V69.4707C266.5 70.3702 266.233 71.144 265.678 71.6924C265.123 72.2398 264.344 72.5 263.441 72.5H256.537C255.641 72.5 254.866 72.2428 254.314 71.6953C253.763 71.1473 253.5 70.3733 253.5 69.4707V62.5293C253.5 61.6267 253.763 60.8527 254.314 60.3047C254.866 59.7572 255.641 59.5 256.537 59.5H263.441Z" stroke="#E0E1E4"/>
<path d="M248.868 61C250.215 61 251 61.7713 251 63.1076V68.8924C251 70.2287 250.215 71 248.868 71" stroke="#171717" stroke-opacity="0.9" stroke-width="2"/>
<path d="M271 61C269.653 61 268.868 61.7713 268.868 63.1076V68.8924C268.868 70.2287 269.653 71 271 71" stroke="#171717" stroke-opacity="0.9" stroke-width="2"/>
<rect x="257.5" y="75.5" width="5" height="5" rx="2.5" fill="#171717" fill-opacity="0.9"/>
<rect x="257.5" y="75.5" width="5" height="5" rx="2.5" fill="#7B8374"/>
<rect x="257.5" y="75.5" width="5" height="5" rx="2.5" stroke="#E0E1E4"/>
<rect x="263" y="77" width="4" height="2" rx="1" fill="#171717" fill-opacity="0.9"/>
<rect x="253" y="77" width="4" height="2" rx="1" fill="#171717" fill-opacity="0.9"/>
<path d="M0 54C0 50.6863 2.68629 48 6 48H34C37.3137 48 40 50.6863 40 54V82C40 85.3137 37.3137 88 34 88H6C2.68629 88 0 85.3137 0 82V54Z" fill="#A3A3A3" fill-opacity="0.23"/>
<path d="M6 48.5H34C37.0376 48.5 39.5 50.9624 39.5 54V82C39.5 85.0376 37.0376 87.5 34 87.5H6C2.96243 87.5 0.5 85.0376 0.5 82V54C0.5 50.9624 2.96243 48.5 6 48.5Z" stroke="#A3A3A3" stroke-opacity="0.23"/>
<rect x="18" y="78" width="4" height="4" rx="2" fill="#171717" fill-opacity="0.9"/>
<rect x="18" y="78" width="4" height="4" rx="2" fill="#525252"/>
<rect x="23" y="79" width="4" height="2" rx="1" fill="#171717" fill-opacity="0.9"/>
<rect x="13" y="79" width="4" height="2" rx="1" fill="#171717" fill-opacity="0.9"/>
<rect x="9" y="59" width="22" height="14" rx="3" stroke="#171717" stroke-opacity="0.9" stroke-width="2"/>
<rect x="22" y="52" width="14" height="14" rx="7" stroke="#171717" stroke-opacity="0.9" stroke-width="2"/>
<circle cx="29" cy="59" r="7" fill="#171717" fill-opacity="0.9"/>
<circle cx="29" cy="59" r="7" fill="#7B8374"/>
<circle cx="29" cy="59" r="7" stroke="#E0E1E4" stroke-width="2"/>
<path d="M27 61L31 57L27 61Z" fill="#171717" fill-opacity="0.9"/>
<path d="M27 61L31 57" stroke="#171717" stroke-opacity="0.9" stroke-width="2" stroke-linecap="round" stroke-linejoin="round"/>
<path d="M27 58C27.5523 58 28 57.5523 28 57C28 56.4477 27.5523 56 27 56C26.4477 56 26 56.4477 26 57C26 57.5523 26.4477 58 27 58Z" fill="#171717" fill-opacity="0.9"/>
<path d="M31 62C31.5523 62 32 61.5523 32 61C32 60.4477 31.5523 60 31 60C30.4477 60 30 60.4477 30 61C30 61.5523 30.4477 62 31 62Z" fill="#171717" fill-opacity="0.9"/>
<path d="M48 54C48 50.6863 50.6863 48 54 48H82C85.3137 48 88 50.6863 88 54V82C88 85.3137 85.3137 88 82 88H54C50.6863 88 48 85.3137 48 82V54Z" fill="#A3A3A3" fill-opacity="0.23"/>
<path d="M54 48.5H82C85.0376 48.5 87.5 50.9624 87.5 54V82C87.5 85.0376 85.0376 87.5 82 87.5H54C50.9624 87.5 48.5 85.0376 48.5 82V54C48.5 50.9624 50.9624 48.5 54 48.5Z" stroke="#A3A3A3" stroke-opacity="0.23"/>
<rect x="66" y="78" width="4" height="4" rx="2" fill="#171717" fill-opacity="0.9"/>
<rect x="66" y="78" width="4" height="4" rx="2" fill="#525252"/>
<rect x="71" y="79" width="4" height="2" rx="1" fill="#171717" fill-opacity="0.9"/>
<rect x="61" y="79" width="4" height="2" rx="1" fill="#171717" fill-opacity="0.9"/>
<path d="M72 65C72 66.0609 71.5786 67.0783 70.8284 67.8284C70.0783 68.5786 69.0609 69 68 69C66.9391 69 65.9217 68.5786 65.1716 67.8284C64.4214 67.0783 64 66.0609 64 65M59.103 61.034H76.897M59.4 60.467C59.1404 60.8132 59 61.2343 59 61.667V73C59 73.5304 59.2107 74.0391 59.5858 74.4142C59.9609 74.7893 60.4696 75 61 75H75C75.5304 75 76.0391 74.7893 76.4142 74.4142C76.7893 74.0391 77 73.5304 77 73V61.667C77 61.2343 76.8596 60.8132 76.6 60.467L74.6 57.8C74.4137 57.5516 74.1721 57.35 73.8944 57.2111C73.6167 57.0723 73.3105 57 73 57H63C62.6895 57 62.3833 57.0723 62.1056 57.2111C61.8279 57.35 61.5863 57.5516 61.4 57.8L59.4 60.467Z" stroke="#171717" stroke-opacity="0.9" stroke-width="2" stroke-linecap="round" stroke-linejoin="round"/>
<rect x="70" y="52" width="14" height="14" rx="7" stroke="#171717" stroke-opacity="0.9" stroke-width="2"/>
<circle cx="77" cy="59" r="7" fill="#171717" fill-opacity="0.9"/>
<circle cx="77" cy="59" r="7" fill="#7B8374"/>
<circle cx="77" cy="59" r="7" stroke="#E0E1E4" stroke-width="2"/>
<path d="M75 61L79 57L75 61Z" fill="#171717" fill-opacity="0.9"/>
<path d="M75 61L79 57" stroke="#171717" stroke-opacity="0.9" stroke-width="2" stroke-linecap="round" stroke-linejoin="round"/>
<path d="M75 58C75.5523 58 76 57.5523 76 57C76 56.4477 75.5523 56 75 56C74.4477 56 74 56.4477 74 57C74 57.5523 74.4477 58 75 58Z" fill="#171717" fill-opacity="0.9"/>
<path d="M79 62C79.5523 62 80 61.5523 80 61C80 60.4477 79.5523 60 79 60C78.4477 60 78 60.4477 78 61C78 61.5523 78.4477 62 79 62Z" fill="#171717" fill-opacity="0.9"/>
<path d="M96 54C96 50.6863 98.6863 48 102 48H130C133.314 48 136 50.6863 136 54V82C136 85.3137 133.314 88 130 88H102C98.6863 88 96 85.3137 96 82V54Z" fill="#A3A3A3" fill-opacity="0.23"/>
<path d="M102 48.5H130C133.038 48.5 135.5 50.9624 135.5 54V82C135.5 85.0376 133.038 87.5 130 87.5H102C98.9624 87.5 96.5 85.0376 96.5 82V54C96.5 50.9624 98.9624 48.5 102 48.5Z" stroke="#A3A3A3" stroke-opacity="0.23"/>
<rect x="114" y="78" width="4" height="4" rx="2" fill="#171717" fill-opacity="0.9"/>
<rect x="114" y="78" width="4" height="4" rx="2" fill="#525252"/>
<rect x="119" y="79" width="4" height="2" rx="1" fill="#171717" fill-opacity="0.9"/>
<rect x="109" y="79" width="4" height="2" rx="1" fill="#171717" fill-opacity="0.9"/>
<path d="M125 64H107M125 69H107M109 59H123C124.105 59 125 59.8954 125 61V72C125 73.1046 124.105 74 123 74H109C107.895 74 107 73.1046 107 72V61C107 59.8954 107.895 59 109 59Z" stroke="#171717" stroke-opacity="0.9" stroke-width="2" stroke-linecap="round" stroke-linejoin="round"/>
<path d="M144 54C144 50.6863 146.686 48 150 48H178C181.314 48 184 50.6863 184 54V82C184 85.3137 181.314 88 178 88H150C146.686 88 144 85.3137 144 82V54Z" fill="#A3A3A3" fill-opacity="0.23"/>
<path d="M150 48.5H178C181.038 48.5 183.5 50.9624 183.5 54V82C183.5 85.0376 181.038 87.5 178 87.5H150C146.962 87.5 144.5 85.0376 144.5 82V54C144.5 50.9624 146.962 48.5 150 48.5Z" stroke="#A3A3A3" stroke-opacity="0.23"/>
<rect x="153" y="59" width="18" height="8" rx="1" stroke="#171717" stroke-opacity="0.9" stroke-width="2"/>
<path d="M158 67V74C158 75.1046 158.895 76 160 76H166" stroke="#171717" stroke-opacity="0.9" stroke-width="2" stroke-linecap="round" stroke-linejoin="round"/>
<path d="M170 69C171.857 69 173.637 69.7371 174.95 71.0498C176.263 72.3626 177 74.1435 177 76C177 77.8565 176.263 79.6374 174.95 80.9502C173.637 82.2629 171.857 83 170 83C168.143 83 166.363 82.2629 165.05 80.9502C163.737 79.6374 163 77.8565 163 76L163.009 75.6533C163.095 73.923 163.819 72.2806 165.05 71.0498C166.363 69.7371 168.143 69 170 69Z" fill="#171717" fill-opacity="0.9"/>
<path d="M170 69C171.857 69 173.637 69.7371 174.95 71.0498C176.263 72.3626 177 74.1435 177 76C177 77.8565 176.263 79.6374 174.95 80.9502C173.637 82.2629 171.857 83 170 83C168.143 83 166.363 82.2629 165.05 80.9502C163.737 79.6374 163 77.8565 163 76L163.009 75.6533C163.095 73.923 163.819 72.2806 165.05 71.0498C166.363 69.7371 168.143 69 170 69Z" fill="#7B8374"/>
<path d="M170 69C171.857 69 173.637 69.7371 174.95 71.0498C176.263 72.3626 177 74.1435 177 76C177 77.8565 176.263 79.6374 174.95 80.9502C173.637 82.2629 171.857 83 170 83C168.143 83 166.363 82.2629 165.05 80.9502C163.737 79.6374 163 77.8565 163 76L163.009 75.6533C163.095 73.923 163.819 72.2806 165.05 71.0498C166.363 69.7371 168.143 69 170 69Z" stroke="#E0E1E4" stroke-width="2" stroke-linecap="round" stroke-linejoin="round"/>
<path d="M170 73.4283V78.5712M167.429 75.9998H172.572" stroke="#171717" stroke-opacity="0.9" stroke-width="2" stroke-linecap="round" stroke-linejoin="round"/>
<path d="M192 54C192 50.6863 194.686 48 198 48H226C229.314 48 232 50.6863 232 54V82C232 85.3137 229.314 88 226 88H198C194.686 88 192 85.3137 192 82V54Z" fill="#A3A3A3" fill-opacity="0.23"/>
<path d="M198 48.5H226C229.038 48.5 231.5 50.9624 231.5 54V82C231.5 85.0376 229.038 87.5 226 87.5H198C194.962 87.5 192.5 85.0376 192.5 82V54C192.5 50.9624 194.962 48.5 198 48.5Z" stroke="#A3A3A3" stroke-opacity="0.23"/>
<path d="M212 64V66C212 67.1046 212.895 68 214 68H218C219.105 68 220 68.8954 220 70V72" stroke="#171717" stroke-opacity="0.9" stroke-width="2" stroke-linecap="round" stroke-linejoin="round"/>
<path d="M212 64V66C212 67.1046 212.895 68 214 68H218C219.105 68 220 68.8954 220 70V72" stroke="#525252" stroke-width="2" stroke-linecap="round" stroke-linejoin="round"/>
<path d="M212 64V66C212 67.1046 211.105 68 210 68H206C204.895 68 204 68.8954 204 70V72" stroke="#171717" stroke-opacity="0.9" stroke-width="2" stroke-linecap="round" stroke-linejoin="round"/>
<path d="M212 64V66C212 67.1046 211.105 68 210 68H206C204.895 68 204 68.8954 204 70V72" stroke="#525252" stroke-width="2" stroke-linecap="round" stroke-linejoin="round"/>
<rect x="205" y="56" width="14" height="7" rx="1" stroke="#171717" stroke-opacity="0.9" stroke-width="2"/>
<rect x="199" y="73" width="10" height="7" rx="1" stroke="#171717" stroke-opacity="0.9" stroke-width="2"/>
<rect x="215" y="73" width="10" height="7" rx="1" stroke="#171717" stroke-opacity="0.9" stroke-width="2"/>
<path d="M240 102C240 98.6863 242.686 96 246 96H274C277.314 96 280 98.6863 280 102V130C280 133.314 277.314 136 274 136H246C242.686 136 240 133.314 240 130V102Z" fill="#A3A3A3" fill-opacity="0.23"/>
<path d="M246 96.5H274C277.038 96.5 279.5 98.9624 279.5 102V130C279.5 133.038 277.038 135.5 274 135.5H246C242.962 135.5 240.5 133.038 240.5 130V102C240.5 98.9624 242.962 96.5 246 96.5Z" stroke="#A3A3A3" stroke-opacity="0.23"/>
<rect x="249" y="105" width="22" height="22" rx="3" stroke="#171717" stroke-opacity="0.9" stroke-width="2"/>
<path d="M266.012 109.775C266.307 109.775 266.574 109.842 266.802 109.983C267.047 110.12 267.2 110.33 267.223 110.607L267.222 110.718C267.196 110.972 267.007 111.202 266.768 111.403L266.767 111.402L261.469 116.099C261.673 116.904 261.85 117.574 261.998 118.11L262.113 118.496C262.228 118.857 262.341 119.148 262.452 119.369C262.6 119.665 262.75 119.841 262.889 119.93C263.032 120.021 263.223 120.073 263.474 120.073C263.643 120.073 263.863 119.997 264.142 119.802C264.422 119.59 264.731 119.297 265.067 118.918L265.071 118.914C265.214 118.761 265.377 118.645 265.56 118.602C265.772 118.551 265.983 118.633 266.173 118.762C266.431 118.915 266.634 119.103 266.712 119.338C266.801 119.549 266.791 119.766 266.676 119.964L266.672 119.971C266.517 120.216 266.261 120.514 265.912 120.861L265.911 120.86C265.565 121.221 265.14 121.54 264.64 121.816L264.446 121.913C263.994 122.121 263.504 122.225 262.979 122.225C262.287 122.225 261.707 122.059 261.265 121.705L261.261 121.702C260.831 121.342 260.484 120.806 260.209 120.113C259.969 119.509 259.726 118.765 259.477 117.884L255.351 121.563L255.35 121.564C255.13 121.757 254.902 121.901 254.667 121.987C254.435 122.072 254.181 122.113 253.908 122.113C253.47 122.113 253.108 121.977 252.88 121.661L252.874 121.653C252.744 121.456 252.75 121.234 252.845 121.023C252.934 120.824 253.107 120.623 253.336 120.421L258.871 115.521C258.697 114.85 258.539 114.286 258.394 113.829L258.392 113.823C258.252 113.337 258.116 112.963 257.983 112.697L257.981 112.693C257.847 112.408 257.717 112.237 257.603 112.149L257.593 112.142L257.584 112.133C257.483 112.037 257.373 111.994 257.245 111.994C256.991 111.994 256.784 112.041 256.619 112.126L256.613 112.129C256.434 112.215 256.289 112.297 256.178 112.377L256.164 112.387L256.15 112.394C255.91 112.518 255.656 112.515 255.409 112.397C255.186 112.291 255.013 112.129 254.896 111.915V111.916C254.762 111.716 254.693 111.493 254.693 111.254V111.245L254.694 111.235C254.716 110.971 254.847 110.752 255.062 110.584L255.072 110.576L255.238 110.472C255.426 110.361 255.682 110.233 256 110.087L256.003 110.085C256.473 109.877 256.99 109.775 257.551 109.775C258.009 109.775 258.42 109.881 258.773 110.1H258.772C259.134 110.299 259.437 110.599 259.686 110.99C259.949 111.367 260.176 111.823 260.368 112.356C260.539 112.782 260.702 113.258 260.861 113.783L264.688 110.392C264.914 110.191 265.126 110.036 265.32 109.935C265.529 109.826 265.761 109.775 266.012 109.775Z" fill="#171717" fill-opacity="0.9"/>
<path d="M266.012 109.775C266.307 109.775 266.574 109.842 266.802 109.983C267.047 110.12 267.2 110.33 267.223 110.607L267.222 110.718C267.196 110.972 267.007 111.202 266.768 111.403L266.767 111.402L261.469 116.099C261.673 116.904 261.85 117.574 261.998 118.11L262.113 118.496C262.228 118.857 262.341 119.148 262.452 119.369C262.6 119.665 262.75 119.841 262.889 119.93C263.032 120.021 263.223 120.073 263.474 120.073C263.643 120.073 263.863 119.997 264.142 119.802C264.422 119.59 264.731 119.297 265.067 118.918L265.071 118.914C265.214 118.761 265.377 118.645 265.56 118.602C265.772 118.551 265.983 118.633 266.173 118.762C266.431 118.915 266.634 119.103 266.712 119.338C266.801 119.549 266.791 119.766 266.676 119.964L266.672 119.971C266.517 120.216 266.261 120.514 265.912 120.861L265.911 120.86C265.565 121.221 265.14 121.54 264.64 121.816L264.446 121.913C263.994 122.121 263.504 122.225 262.979 122.225C262.287 122.225 261.707 122.059 261.265 121.705L261.261 121.702C260.831 121.342 260.484 120.806 260.209 120.113C259.969 119.509 259.726 118.765 259.477 117.884L255.351 121.563L255.35 121.564C255.13 121.757 254.902 121.901 254.667 121.987C254.435 122.072 254.181 122.113 253.908 122.113C253.47 122.113 253.108 121.977 252.88 121.661L252.874 121.653C252.744 121.456 252.75 121.234 252.845 121.023C252.934 120.824 253.107 120.623 253.336 120.421L258.871 115.521C258.697 114.85 258.539 114.286 258.394 113.829L258.392 113.823C258.252 113.337 258.116 112.963 257.983 112.697L257.981 112.693C257.847 112.408 257.717 112.237 257.603 112.149L257.593 112.142L257.584 112.133C257.483 112.037 257.373 111.994 257.245 111.994C256.991 111.994 256.784 112.041 256.619 112.126L256.613 112.129C256.434 112.215 256.289 112.297 256.178 112.377L256.164 112.387L256.15 112.394C255.91 112.518 255.656 112.515 255.409 112.397C255.186 112.291 255.013 112.129 254.896 111.915V111.916C254.762 111.716 254.693 111.493 254.693 111.254V111.245L254.694 111.235C254.716 110.971 254.847 110.752 255.062 110.584L255.072 110.576L255.238 110.472C255.426 110.361 255.682 110.233 256 110.087L256.003 110.085C256.473 109.877 256.99 109.775 257.551 109.775C258.009 109.775 258.42 109.881 258.773 110.1H258.772C259.134 110.299 259.437 110.599 259.686 110.99C259.949 111.367 260.176 111.823 260.368 112.356C260.539 112.782 260.702 113.258 260.861 113.783L264.688 110.392C264.914 110.191 265.126 110.036 265.32 109.935C265.529 109.826 265.761 109.775 266.012 109.775Z" fill="#525252"/>
<path d="M266.012 109.775C266.307 109.775 266.574 109.842 266.802 109.983C267.047 110.12 267.2 110.33 267.223 110.607L267.222 110.718C267.196 110.972 267.007 111.202 266.768 111.403L266.767 111.402L261.469 116.099C261.673 116.904 261.85 117.574 261.998 118.11L262.113 118.496C262.228 118.857 262.341 119.148 262.452 119.369C262.6 119.665 262.75 119.841 262.889 119.93C263.032 120.021 263.223 120.073 263.474 120.073C263.643 120.073 263.863 119.997 264.142 119.802C264.422 119.59 264.731 119.297 265.067 118.918L265.071 118.914C265.214 118.761 265.377 118.645 265.56 118.602C265.772 118.551 265.983 118.633 266.173 118.762C266.431 118.915 266.634 119.103 266.712 119.338C266.801 119.549 266.791 119.766 266.676 119.964L266.672 119.971C266.517 120.216 266.261 120.514 265.912 120.861L265.911 120.86C265.565 121.221 265.14 121.54 264.64 121.816L264.446 121.913C263.994 122.121 263.504 122.225 262.979 122.225C262.287 122.225 261.707 122.059 261.265 121.705L261.261 121.702C260.831 121.342 260.484 120.806 260.209 120.113C259.969 119.509 259.726 118.765 259.477 117.884L255.351 121.563L255.35 121.564C255.13 121.757 254.902 121.901 254.667 121.987C254.435 122.072 254.181 122.113 253.908 122.113C253.47 122.113 253.108 121.977 252.88 121.661L252.874 121.653C252.744 121.456 252.75 121.234 252.845 121.023C252.934 120.824 253.107 120.623 253.336 120.421L258.871 115.521C258.697 114.85 258.539 114.286 258.394 113.829L258.392 113.823C258.252 113.337 258.116 112.963 257.983 112.697L257.981 112.693C257.847 112.408 257.717 112.237 257.603 112.149L257.593 112.142L257.584 112.133C257.483 112.037 257.373 111.994 257.245 111.994C256.991 111.994 256.784 112.041 256.619 112.126L256.613 112.129C256.434 112.215 256.289 112.297 256.178 112.377L256.164 112.387L256.15 112.394C255.91 112.518 255.656 112.515 255.409 112.397C255.186 112.291 255.013 112.129 254.896 111.915V111.916C254.762 111.716 254.693 111.493 254.693 111.254V111.245L254.694 111.235C254.716 110.971 254.847 110.752 255.062 110.584L255.072 110.576L255.238 110.472C255.426 110.361 255.682 110.233 256 110.087L256.003 110.085C256.473 109.877 256.99 109.775 257.551 109.775C258.009 109.775 258.42 109.881 258.773 110.1H258.772C259.134 110.299 259.437 110.599 259.686 110.99C259.949 111.367 260.176 111.823 260.368 112.356C260.539 112.782 260.702 113.258 260.861 113.783L264.688 110.392C264.914 110.191 265.126 110.036 265.32 109.935C265.529 109.826 265.761 109.775 266.012 109.775Z" stroke="#171717" stroke-opacity="0.9" stroke-width="0.45"/>
<path d="M266.012 109.775C266.307 109.775 266.574 109.842 266.802 109.983C267.047 110.12 267.2 110.33 267.223 110.607L267.222 110.718C267.196 110.972 267.007 111.202 266.768 111.403L266.767 111.402L261.469 116.099C261.673 116.904 261.85 117.574 261.998 118.11L262.113 118.496C262.228 118.857 262.341 119.148 262.452 119.369C262.6 119.665 262.75 119.841 262.889 119.93C263.032 120.021 263.223 120.073 263.474 120.073C263.643 120.073 263.863 119.997 264.142 119.802C264.422 119.59 264.731 119.297 265.067 118.918L265.071 118.914C265.214 118.761 265.377 118.645 265.56 118.602C265.772 118.551 265.983 118.633 266.173 118.762C266.431 118.915 266.634 119.103 266.712 119.338C266.801 119.549 266.791 119.766 266.676 119.964L266.672 119.971C266.517 120.216 266.261 120.514 265.912 120.861L265.911 120.86C265.565 121.221 265.14 121.54 264.64 121.816L264.446 121.913C263.994 122.121 263.504 122.225 262.979 122.225C262.287 122.225 261.707 122.059 261.265 121.705L261.261 121.702C260.831 121.342 260.484 120.806 260.209 120.113C259.969 119.509 259.726 118.765 259.477 117.884L255.351 121.563L255.35 121.564C255.13 121.757 254.902 121.901 254.667 121.987C254.435 122.072 254.181 122.113 253.908 122.113C253.47 122.113 253.108 121.977 252.88 121.661L252.874 121.653C252.744 121.456 252.75 121.234 252.845 121.023C252.934 120.824 253.107 120.623 253.336 120.421L258.871 115.521C258.697 114.85 258.539 114.286 258.394 113.829L258.392 113.823C258.252 113.337 258.116 112.963 257.983 112.697L257.981 112.693C257.847 112.408 257.717 112.237 257.603 112.149L257.593 112.142L257.584 112.133C257.483 112.037 257.373 111.994 257.245 111.994C256.991 111.994 256.784 112.041 256.619 112.126L256.613 112.129C256.434 112.215 256.289 112.297 256.178 112.377L256.164 112.387L256.15 112.394C255.91 112.518 255.656 112.515 255.409 112.397C255.186 112.291 255.013 112.129 254.896 111.915V111.916C254.762 111.716 254.693 111.493 254.693 111.254V111.245L254.694 111.235C254.716 110.971 254.847 110.752 255.062 110.584L255.072 110.576L255.238 110.472C255.426 110.361 255.682 110.233 256 110.087L256.003 110.085C256.473 109.877 256.99 109.775 257.551 109.775C258.009 109.775 258.42 109.881 258.773 110.1H258.772C259.134 110.299 259.437 110.599 259.686 110.99C259.949 111.367 260.176 111.823 260.368 112.356C260.539 112.782 260.702 113.258 260.861 113.783L264.688 110.392C264.914 110.191 265.126 110.036 265.32 109.935C265.529 109.826 265.761 109.775 266.012 109.775Z" stroke="#525252" stroke-width="0.45"/>
<rect x="262" y="118" width="14" height="14" rx="7" stroke="#E0E1E4" stroke-width="2"/>
<circle cx="269" cy="125" r="6" fill="#7B8374"/>
<path d="M265.305 126.53L266.228 126.148M266.228 123.852L265.305 123.469M267.852 122.228L267.469 121.304M267.852 127.772L267.469 128.695M270.148 122.228L270.531 121.304M270.53 128.696L270.148 127.772M271.772 123.852L272.696 123.469M271.772 126.148L272.696 126.531M272 125C272 126.657 270.657 128 269 128C267.343 128 266 126.657 266 125C266 123.343 267.343 122 269 122C270.657 122 272 123.343 272 125Z" stroke="#171717" stroke-opacity="0.9" stroke-width="1.5" stroke-linecap="round" stroke-linejoin="round"/>
<path d="M0 102C0 98.6863 2.68629 96 6 96H34C37.3137 96 40 98.6863 40 102V130C40 133.314 37.3137 136 34 136H6C2.68629 136 0 133.314 0 130V102Z" fill="#A3A3A3" fill-opacity="0.23"/>
<path d="M6 96.5H34C37.0376 96.5 39.5 98.9624 39.5 102V130C39.5 133.038 37.0376 135.5 34 135.5H6C2.96243 135.5 0.5 133.038 0.5 130V102C0.5 98.9624 2.96243 96.5 6 96.5Z" stroke="#A3A3A3" stroke-opacity="0.23"/>
<rect x="9" y="105" width="22" height="22" rx="3" stroke="#171717" stroke-opacity="0.9" stroke-width="2"/>
<path d="M26.0117 109.775C26.3074 109.775 26.5736 109.842 26.8018 109.983C27.047 110.12 27.1998 110.33 27.2227 110.607L27.2217 110.718C27.1956 110.972 27.0068 111.202 26.7676 111.403L26.7666 111.402L21.4688 116.099C21.6735 116.904 21.85 117.574 21.998 118.11L22.1133 118.496C22.2283 118.857 22.3415 119.148 22.4521 119.369C22.6001 119.665 22.7496 119.841 22.8887 119.93C23.0322 120.021 23.223 120.073 23.4736 120.073C23.643 120.073 23.8633 119.997 24.1416 119.802C24.4224 119.59 24.731 119.297 25.0674 118.918L25.0713 118.914C25.2145 118.761 25.3765 118.645 25.5596 118.602C25.7719 118.551 25.9834 118.633 26.1729 118.762C26.431 118.915 26.6343 119.103 26.7119 119.338C26.8006 119.549 26.7914 119.766 26.6758 119.964L26.6719 119.971C26.5173 120.216 26.2605 120.514 25.9121 120.861L25.9111 120.86C25.5647 121.221 25.1402 121.54 24.6396 121.816L24.4463 121.913C23.9939 122.121 23.5038 122.225 22.9795 122.225C22.2865 122.225 21.7071 122.059 21.2646 121.705L21.2607 121.702C20.8311 121.342 20.4837 120.806 20.209 120.113C19.9694 119.509 19.7262 118.765 19.4766 117.884L15.3506 121.563L15.3496 121.564C15.1301 121.757 14.9024 121.901 14.667 121.987C14.4351 122.072 14.1812 122.113 13.9082 122.113C13.4703 122.113 13.1078 121.977 12.8799 121.661L12.874 121.653C12.7445 121.456 12.7502 121.234 12.8447 121.023C12.9344 120.824 13.1072 120.623 13.3359 120.421L18.8711 115.521C18.6971 114.85 18.539 114.286 18.3936 113.829L18.3916 113.823C18.2524 113.337 18.1158 112.963 17.9834 112.697L17.9814 112.693C17.8468 112.408 17.7173 112.237 17.6025 112.149L17.5928 112.142L17.584 112.133C17.4831 112.037 17.3731 111.994 17.2451 111.994C16.9907 111.994 16.7845 112.041 16.6191 112.126L16.6133 112.129C16.4336 112.215 16.2893 112.297 16.1777 112.377L16.1641 112.387L16.1504 112.394C15.9104 112.518 15.6555 112.515 15.4092 112.397C15.1856 112.291 15.0128 112.129 14.8955 111.915V111.916C14.7617 111.716 14.6934 111.493 14.6934 111.254V111.245L14.6943 111.235C14.7158 110.971 14.8473 110.752 15.0625 110.584L15.0723 110.576L15.2383 110.472C15.4264 110.361 15.6821 110.233 16 110.087L16.0029 110.085C16.4732 109.877 16.9903 109.775 17.5508 109.775C18.0092 109.775 18.4196 109.881 18.7734 110.1H18.7725C19.1336 110.299 19.437 110.599 19.6855 110.99C19.949 111.367 20.1757 111.823 20.3682 112.356C20.539 112.782 20.7025 113.258 20.8613 113.783L24.6875 110.392C24.9144 110.191 25.1256 110.036 25.3203 109.935C25.5286 109.826 25.761 109.775 26.0117 109.775Z" fill="#171717" fill-opacity="0.9"/>
<path d="M26.0117 109.775C26.3074 109.775 26.5736 109.842 26.8018 109.983C27.047 110.12 27.1998 110.33 27.2227 110.607L27.2217 110.718C27.1956 110.972 27.0068 111.202 26.7676 111.403L26.7666 111.402L21.4688 116.099C21.6735 116.904 21.85 117.574 21.998 118.11L22.1133 118.496C22.2283 118.857 22.3415 119.148 22.4521 119.369C22.6001 119.665 22.7496 119.841 22.8887 119.93C23.0322 120.021 23.223 120.073 23.4736 120.073C23.643 120.073 23.8633 119.997 24.1416 119.802C24.4224 119.59 24.731 119.297 25.0674 118.918L25.0713 118.914C25.2145 118.761 25.3765 118.645 25.5596 118.602C25.7719 118.551 25.9834 118.633 26.1729 118.762C26.431 118.915 26.6343 119.103 26.7119 119.338C26.8006 119.549 26.7914 119.766 26.6758 119.964L26.6719 119.971C26.5173 120.216 26.2605 120.514 25.9121 120.861L25.9111 120.86C25.5647 121.221 25.1402 121.54 24.6396 121.816L24.4463 121.913C23.9939 122.121 23.5038 122.225 22.9795 122.225C22.2865 122.225 21.7071 122.059 21.2646 121.705L21.2607 121.702C20.8311 121.342 20.4837 120.806 20.209 120.113C19.9694 119.509 19.7262 118.765 19.4766 117.884L15.3506 121.563L15.3496 121.564C15.1301 121.757 14.9024 121.901 14.667 121.987C14.4351 122.072 14.1812 122.113 13.9082 122.113C13.4703 122.113 13.1078 121.977 12.8799 121.661L12.874 121.653C12.7445 121.456 12.7502 121.234 12.8447 121.023C12.9344 120.824 13.1072 120.623 13.3359 120.421L18.8711 115.521C18.6971 114.85 18.539 114.286 18.3936 113.829L18.3916 113.823C18.2524 113.337 18.1158 112.963 17.9834 112.697L17.9814 112.693C17.8468 112.408 17.7173 112.237 17.6025 112.149L17.5928 112.142L17.584 112.133C17.4831 112.037 17.3731 111.994 17.2451 111.994C16.9907 111.994 16.7845 112.041 16.6191 112.126L16.6133 112.129C16.4336 112.215 16.2893 112.297 16.1777 112.377L16.1641 112.387L16.1504 112.394C15.9104 112.518 15.6555 112.515 15.4092 112.397C15.1856 112.291 15.0128 112.129 14.8955 111.915V111.916C14.7617 111.716 14.6934 111.493 14.6934 111.254V111.245L14.6943 111.235C14.7158 110.971 14.8473 110.752 15.0625 110.584L15.0723 110.576L15.2383 110.472C15.4264 110.361 15.6821 110.233 16 110.087L16.0029 110.085C16.4732 109.877 16.9903 109.775 17.5508 109.775C18.0092 109.775 18.4196 109.881 18.7734 110.1H18.7725C19.1336 110.299 19.437 110.599 19.6855 110.99C19.949 111.367 20.1757 111.823 20.3682 112.356C20.539 112.782 20.7025 113.258 20.8613 113.783L24.6875 110.392C24.9144 110.191 25.1256 110.036 25.3203 109.935C25.5286 109.826 25.761 109.775 26.0117 109.775Z" fill="#525252"/>
<path d="M26.0117 109.775C26.3074 109.775 26.5736 109.842 26.8018 109.983C27.047 110.12 27.1998 110.33 27.2227 110.607L27.2217 110.718C27.1956 110.972 27.0068 111.202 26.7676 111.403L26.7666 111.402L21.4688 116.099C21.6735 116.904 21.85 117.574 21.998 118.11L22.1133 118.496C22.2283 118.857 22.3415 119.148 22.4521 119.369C22.6001 119.665 22.7496 119.841 22.8887 119.93C23.0322 120.021 23.223 120.073 23.4736 120.073C23.643 120.073 23.8633 119.997 24.1416 119.802C24.4224 119.59 24.731 119.297 25.0674 118.918L25.0713 118.914C25.2145 118.761 25.3765 118.645 25.5596 118.602C25.7719 118.551 25.9834 118.633 26.1729 118.762C26.431 118.915 26.6343 119.103 26.7119 119.338C26.8006 119.549 26.7914 119.766 26.6758 119.964L26.6719 119.971C26.5173 120.216 26.2605 120.514 25.9121 120.861L25.9111 120.86C25.5647 121.221 25.1402 121.54 24.6396 121.816L24.4463 121.913C23.9939 122.121 23.5038 122.225 22.9795 122.225C22.2865 122.225 21.7071 122.059 21.2646 121.705L21.2607 121.702C20.8311 121.342 20.4837 120.806 20.209 120.113C19.9694 119.509 19.7262 118.765 19.4766 117.884L15.3506 121.563L15.3496 121.564C15.1301 121.757 14.9024 121.901 14.667 121.987C14.4351 122.072 14.1812 122.113 13.9082 122.113C13.4703 122.113 13.1078 121.977 12.8799 121.661L12.874 121.653C12.7445 121.456 12.7502 121.234 12.8447 121.023C12.9344 120.824 13.1072 120.623 13.3359 120.421L18.8711 115.521C18.6971 114.85 18.539 114.286 18.3936 113.829L18.3916 113.823C18.2524 113.337 18.1158 112.963 17.9834 112.697L17.9814 112.693C17.8468 112.408 17.7173 112.237 17.6025 112.149L17.5928 112.142L17.584 112.133C17.4831 112.037 17.3731 111.994 17.2451 111.994C16.9907 111.994 16.7845 112.041 16.6191 112.126L16.6133 112.129C16.4336 112.215 16.2893 112.297 16.1777 112.377L16.1641 112.387L16.1504 112.394C15.9104 112.518 15.6555 112.515 15.4092 112.397C15.1856 112.291 15.0128 112.129 14.8955 111.915V111.916C14.7617 111.716 14.6934 111.493 14.6934 111.254V111.245L14.6943 111.235C14.7158 110.971 14.8473 110.752 15.0625 110.584L15.0723 110.576L15.2383 110.472C15.4264 110.361 15.6821 110.233 16 110.087L16.0029 110.085C16.4732 109.877 16.9903 109.775 17.5508 109.775C18.0092 109.775 18.4196 109.881 18.7734 110.1H18.7725C19.1336 110.299 19.437 110.599 19.6855 110.99C19.949 111.367 20.1757 111.823 20.3682 112.356C20.539 112.782 20.7025 113.258 20.8613 113.783L24.6875 110.392C24.9144 110.191 25.1256 110.036 25.3203 109.935C25.5286 109.826 25.761 109.775 26.0117 109.775Z" stroke="#171717" stroke-opacity="0.9" stroke-width="0.45"/>
<path d="M26.0117 109.775C26.3074 109.775 26.5736 109.842 26.8018 109.983C27.047 110.12 27.1998 110.33 27.2227 110.607L27.2217 110.718C27.1956 110.972 27.0068 111.202 26.7676 111.403L26.7666 111.402L21.4688 116.099C21.6735 116.904 21.85 117.574 21.998 118.11L22.1133 118.496C22.2283 118.857 22.3415 119.148 22.4521 119.369C22.6001 119.665 22.7496 119.841 22.8887 119.93C23.0322 120.021 23.223 120.073 23.4736 120.073C23.643 120.073 23.8633 119.997 24.1416 119.802C24.4224 119.59 24.731 119.297 25.0674 118.918L25.0713 118.914C25.2145 118.761 25.3765 118.645 25.5596 118.602C25.7719 118.551 25.9834 118.633 26.1729 118.762C26.431 118.915 26.6343 119.103 26.7119 119.338C26.8006 119.549 26.7914 119.766 26.6758 119.964L26.6719 119.971C26.5173 120.216 26.2605 120.514 25.9121 120.861L25.9111 120.86C25.5647 121.221 25.1402 121.54 24.6396 121.816L24.4463 121.913C23.9939 122.121 23.5038 122.225 22.9795 122.225C22.2865 122.225 21.7071 122.059 21.2646 121.705L21.2607 121.702C20.8311 121.342 20.4837 120.806 20.209 120.113C19.9694 119.509 19.7262 118.765 19.4766 117.884L15.3506 121.563L15.3496 121.564C15.1301 121.757 14.9024 121.901 14.667 121.987C14.4351 122.072 14.1812 122.113 13.9082 122.113C13.4703 122.113 13.1078 121.977 12.8799 121.661L12.874 121.653C12.7445 121.456 12.7502 121.234 12.8447 121.023C12.9344 120.824 13.1072 120.623 13.3359 120.421L18.8711 115.521C18.6971 114.85 18.539 114.286 18.3936 113.829L18.3916 113.823C18.2524 113.337 18.1158 112.963 17.9834 112.697L17.9814 112.693C17.8468 112.408 17.7173 112.237 17.6025 112.149L17.5928 112.142L17.584 112.133C17.4831 112.037 17.3731 111.994 17.2451 111.994C16.9907 111.994 16.7845 112.041 16.6191 112.126L16.6133 112.129C16.4336 112.215 16.2893 112.297 16.1777 112.377L16.1641 112.387L16.1504 112.394C15.9104 112.518 15.6555 112.515 15.4092 112.397C15.1856 112.291 15.0128 112.129 14.8955 111.915V111.916C14.7617 111.716 14.6934 111.493 14.6934 111.254V111.245L14.6943 111.235C14.7158 110.971 14.8473 110.752 15.0625 110.584L15.0723 110.576L15.2383 110.472C15.4264 110.361 15.6821 110.233 16 110.087L16.0029 110.085C16.4732 109.877 16.9903 109.775 17.5508 109.775C18.0092 109.775 18.4196 109.881 18.7734 110.1H18.7725C19.1336 110.299 19.437 110.599 19.6855 110.99C19.949 111.367 20.1757 111.823 20.3682 112.356C20.539 112.782 20.7025 113.258 20.8613 113.783L24.6875 110.392C24.9144 110.191 25.1256 110.036 25.3203 109.935C25.5286 109.826 25.761 109.775 26.0117 109.775Z" stroke="#525252" stroke-width="0.45"/>
<rect x="22" y="118" width="14" height="14" rx="7" stroke="#E0E1E4" stroke-width="2"/>
<circle cx="29" cy="125" r="6" fill="#7B8374"/>
<path d="M26.5056 126.667C26.8352 127.16 27.3038 127.545 27.8519 127.772C28.4001 127.999 29.0033 128.058 29.5853 127.942C30.1672 127.827 30.7018 127.541 31.1213 127.121C31.5409 126.702 31.8266 126.167 31.9424 125.585C32.0581 125.003 31.9987 124.4 31.7716 123.852C31.5446 123.304 31.1601 122.835 30.6667 122.506C30.1734 122.176 29.5933 122 29 122C28.1613 122.003 27.3563 122.33 26.7533 122.913L26 123.667M26 123.667V122M26 123.667H27.6667" stroke="#171717" stroke-opacity="0.9" stroke-width="1.5" stroke-linecap="round" stroke-linejoin="round"/>
<path d="M48 102C48 98.6863 50.6863 96 54 96H82C85.3137 96 88 98.6863 88 102V130C88 133.314 85.3137 136 82 136H54C50.6863 136 48 133.314 48 130V102Z" fill="#A3A3A3" fill-opacity="0.23"/>
<path d="M54 96.5H82C85.0376 96.5 87.5 98.9624 87.5 102V130C87.5 133.038 85.0376 135.5 82 135.5H54C50.9624 135.5 48.5 133.038 48.5 130V102C48.5 98.9624 50.9624 96.5 54 96.5Z" stroke="#A3A3A3" stroke-opacity="0.23"/>
<mask id="mask0_866_680" style="mask-type:alpha" maskUnits="userSpaceOnUse" x="56" y="104" width="24" height="24">
<path d="M63 128H56V121H63V128Z" fill="#D9D9D9"/>
<path d="M80 128H73V121H80V128Z" fill="#D9D9D9"/>
<path d="M63 111H56V104H63V111Z" fill="#D9D9D9"/>
<path d="M80 111H73V104H80V111Z" fill="#D9D9D9"/>
</mask>
<g mask="url(#mask0_866_680)">
<rect x="57" y="105" width="22" height="22" rx="3" stroke="#171717" stroke-opacity="0.9" stroke-width="2"/>
</g>
<path d="M74.1436 110.9V121.1H71.8438V110.9H74.1436Z" fill="#171717" fill-opacity="0.9"/>
<path d="M74.1436 110.9V121.1H71.8438V110.9H74.1436Z" fill="#525252"/>
<path d="M74.1436 110.9V121.1H71.8438V110.9H74.1436Z" stroke="#171717" stroke-opacity="0.9" stroke-width="0.2"/>
<path d="M74.1436 110.9V121.1H71.8438V110.9H74.1436Z" stroke="#525252" stroke-width="0.2"/>
<path d="M67.2356 110.9L67.261 110.962L71.3323 120.962L71.3879 121.1H68.8567L68.8323 121.036L68.2131 119.457H63.9368L63.3323 121.036L63.3079 121.1H60.7766L60.8323 120.963L64.8606 110.963L64.886 110.9H67.2356ZM64.6838 117.343H67.4651L66.0676 113.66L64.6838 117.343Z" fill="#171717" fill-opacity="0.9"/>
<path d="M67.2356 110.9L67.261 110.962L71.3323 120.962L71.3879 121.1H68.8567L68.8323 121.036L68.2131 119.457H63.9368L63.3323 121.036L63.3079 121.1H60.7766L60.8323 120.963L64.8606 110.963L64.886 110.9H67.2356ZM64.6838 117.343H67.4651L66.0676 113.66L64.6838 117.343Z" fill="#525252"/>
<path d="M67.2356 110.9L67.261 110.962L71.3323 120.962L71.3879 121.1H68.8567L68.8323 121.036L68.2131 119.457H63.9368L63.3323 121.036L63.3079 121.1H60.7766L60.8323 120.963L64.8606 110.963L64.886 110.9H67.2356ZM64.6838 117.343H67.4651L66.0676 113.66L64.6838 117.343Z" stroke="#171717" stroke-opacity="0.9" stroke-width="0.2"/>
<path d="M67.2356 110.9L67.261 110.962L71.3323 120.962L71.3879 121.1H68.8567L68.8323 121.036L68.2131 119.457H63.9368L63.3323 121.036L63.3079 121.1H60.7766L60.8323 120.963L64.8606 110.963L64.886 110.9H67.2356ZM64.6838 117.343H67.4651L66.0676 113.66L64.6838 117.343Z" stroke="#525252" stroke-width="0.2"/>
<path d="M96 102C96 98.6863 98.6863 96 102 96H130C133.314 96 136 98.6863 136 102V130C136 133.314 133.314 136 130 136H102C98.6863 136 96 133.314 96 130V102Z" fill="#A3A3A3" fill-opacity="0.23"/>
<path d="M102 96.5H130C133.038 96.5 135.5 98.9624 135.5 102V130C135.5 133.038 133.038 135.5 130 135.5H102C98.9624 135.5 96.5 133.038 96.5 130V102C96.5 98.9624 98.9624 96.5 102 96.5Z" stroke="#A3A3A3" stroke-opacity="0.23"/>
<path d="M104 109C104 108.47 104.211 107.961 104.586 107.586C104.961 107.211 105.47 107 106 107H126C126.53 107 127.039 107.211 127.414 107.586C127.789 107.961 128 108.47 128 109V123C128 123.53 127.789 124.039 127.414 124.414C127.039 124.789 126.53 125 126 125H106C105.47 125 104.961 124.789 104.586 124.414C104.211 124.039 104 123.53 104 123V109Z" stroke="#171717" stroke-opacity="0.9" stroke-width="2" stroke-linecap="round" stroke-linejoin="round"/>
<path d="M108 113L111 116L108 119" stroke="#171717" stroke-opacity="0.9" stroke-width="2" stroke-linecap="round" stroke-linejoin="round"/>
<path d="M124.1 111.753V120.248H122.158V111.753H124.1Z" fill="#171717" fill-opacity="0.9"/>
<path d="M124.1 111.753V120.248H122.158V111.753H124.1Z" fill="#525252"/>
<path d="M124.1 111.753V120.248H122.158V111.753H124.1Z" stroke="#171717" stroke-opacity="0.9" stroke-width="0.2"/>
<path d="M124.1 111.753V120.248H122.158V111.753H124.1Z" stroke="#525252" stroke-width="0.2"/>
<path d="M118.364 111.753L118.39 111.814L121.767 120.11L121.822 120.248H119.686L119.661 120.184L119.152 118.885H115.628L115.131 120.184L115.107 120.248H112.97L113.026 120.11L116.367 111.815L116.393 111.753H118.364ZM116.261 117.097H118.519L117.384 114.106L116.261 117.097Z" fill="#171717" fill-opacity="0.9"/>
<path d="M118.364 111.753L118.39 111.814L121.767 120.11L121.822 120.248H119.686L119.661 120.184L119.152 118.885H115.628L115.131 120.184L115.107 120.248H112.97L113.026 120.11L116.367 111.815L116.393 111.753H118.364ZM116.261 117.097H118.519L117.384 114.106L116.261 117.097Z" fill="#525252"/>
<path d="M118.364 111.753L118.39 111.814L121.767 120.11L121.822 120.248H119.686L119.661 120.184L119.152 118.885H115.628L115.131 120.184L115.107 120.248H112.97L113.026 120.11L116.367 111.815L116.393 111.753H118.364ZM116.261 117.097H118.519L117.384 114.106L116.261 117.097Z" stroke="#171717" stroke-opacity="0.9" stroke-width="0.2"/>
<path d="M118.364 111.753L118.39 111.814L121.767 120.11L121.822 120.248H119.686L119.661 120.184L119.152 118.885H115.628L115.131 120.184L115.107 120.248H112.97L113.026 120.11L116.367 111.815L116.393 111.753H118.364ZM116.261 117.097H118.519L117.384 114.106L116.261 117.097Z" stroke="#525252" stroke-width="0.2"/>
<path d="M240 150C240 146.686 242.686 144 246 144H274C277.314 144 280 146.686 280 150V178C280 181.314 277.314 184 274 184H246C242.686 184 240 181.314 240 178V150Z" fill="#A3A3A3" fill-opacity="0.23"/>
<path d="M246 144.5H274C277.038 144.5 279.5 146.962 279.5 150V178C279.5 181.038 277.038 183.5 274 183.5H246C242.962 183.5 240.5 181.038 240.5 178V150C240.5 146.962 242.962 144.5 246 144.5Z" stroke="#A3A3A3" stroke-opacity="0.23"/>
<path d="M250 162V165V162Z" fill="#171717" fill-opacity="0.9"/>
<path d="M254 158V169V158Z" fill="#171717" fill-opacity="0.9"/>
<path d="M258 155V173V155Z" fill="#171717" fill-opacity="0.9"/>
<path d="M262 160V167V160Z" fill="#171717" fill-opacity="0.9"/>
<path d="M266 157V170V157Z" fill="#171717" fill-opacity="0.9"/>
<path d="M270 162V165V162Z" fill="#171717" fill-opacity="0.9"/>
<path d="M250 162V165M254 158V169M258 155V173M262 160V167M266 157V170M270 162V165" stroke="#171717" stroke-opacity="0.9" stroke-width="2" stroke-linecap="round" stroke-linejoin="round"/>
<path d="M0 150C0 146.686 2.68629 144 6 144H34C37.3137 144 40 146.686 40 150V178C40 181.314 37.3137 184 34 184H6C2.68629 184 0 181.314 0 178V150Z" fill="#A3A3A3" fill-opacity="0.23"/>
<path d="M6 144.5H34C37.0376 144.5 39.5 146.962 39.5 150V178C39.5 181.038 37.0376 183.5 34 183.5H6C2.96243 183.5 0.5 181.038 0.5 178V150C0.5 146.962 2.96243 144.5 6 144.5Z" stroke="#A3A3A3" stroke-opacity="0.23"/>
<path d="M12 173C11.9999 171.706 12.3135 170.432 12.9141 169.286C13.5146 168.14 14.3842 167.156 15.4482 166.42C16.5121 165.684 17.7388 165.217 19.0229 165.059C20.307 164.901 21.6103 165.057 22.821 165.513M25 160C25 162.761 22.7614 165 20 165C17.2386 165 15 162.761 15 160C15 157.239 17.2386 155 20 155C22.7614 155 25 157.239 25 160Z" stroke="#171717" stroke-opacity="0.9" stroke-width="2" stroke-linecap="round" stroke-linejoin="round"/>
<path d="M24.9008 172.741C24.7769 172.798 24.6373 172.811 24.505 172.778C24.3727 172.745 24.2556 172.667 24.173 172.559L23.96 172.28C23.8482 172.131 23.7033 172.01 23.5367 171.927C23.37 171.843 23.1863 171.8 23 171.8H21.2C20.8817 171.8 20.5765 171.926 20.3515 172.151C20.1264 172.377 20 172.682 20 173V174.8C20 175.118 20.1264 175.423 20.3515 175.649C20.5765 175.874 20.8817 176 21.2 176C24.0643 176 26.8114 174.862 28.8368 172.837C30.8621 170.811 32 168.064 32 165.2C32 164.882 31.8736 164.577 31.6485 164.351C31.4235 164.126 31.1183 164 30.8 164H29C28.6817 164 28.3765 164.126 28.1515 164.351C27.9264 164.577 27.8 164.882 27.8 165.2V167C27.8 167.186 27.8434 167.37 27.9267 167.537C28.01 167.703 28.131 167.848 28.28 167.96L28.5608 168.171C28.6709 168.255 28.7486 168.374 28.7805 168.509C28.8125 168.644 28.7967 168.786 28.736 168.91C27.916 170.576 26.5673 171.923 24.9008 172.741Z" fill="#7B8374" stroke="#7B8374" stroke-width="1.5" stroke-linecap="round" stroke-linejoin="round"/>
<path d="M48 150C48 146.686 50.6863 144 54 144H82C85.3137 144 88 146.686 88 150V178C88 181.314 85.3137 184 82 184H54C50.6863 184 48 181.314 48 178V150Z" fill="#A3A3A3" fill-opacity="0.23"/>
<path d="M54 144.5H82C85.0376 144.5 87.5 146.962 87.5 150V178C87.5 181.038 85.0376 183.5 82 183.5H54C50.9624 183.5 48.5 181.038 48.5 178V150C48.5 146.962 50.9624 144.5 54 144.5Z" stroke="#A3A3A3" stroke-opacity="0.23"/>
<path d="M73 171C73 171.53 72.7893 172.039 72.4142 172.414C72.0391 172.789 71.5304 173 71 173H60C59.4696 173 58.9609 172.789 58.5858 172.414C58.2107 172.039 58 171.53 58 171V163C58 162.649 58.0924 162.304 58.268 162C58.4435 161.696 58.696 161.444 59 161.268" stroke="#171717" stroke-opacity="0.9" stroke-width="2" stroke-linecap="round" stroke-linejoin="round"/>
<path d="M78 157.5L71.581 161.679C71.2585 161.886 70.8833 161.996 70.5 161.996C70.1167 161.996 69.7415 161.886 69.419 161.679L63 157.5M65 155H76C77.1046 155 78 155.895 78 157V165C78 166.105 77.1046 167 76 167H65C63.8954 167 63 166.105 63 165V157C63 155.895 63.8954 155 65 155Z" stroke="#171717" stroke-opacity="0.9" stroke-width="2" stroke-linecap="round" stroke-linejoin="round"/>
<path d="M96 150C96 146.686 98.6863 144 102 144H130C133.314 144 136 146.686 136 150V178C136 181.314 133.314 184 130 184H102C98.6863 184 96 181.314 96 178V150Z" fill="#A3A3A3" fill-opacity="0.23"/>
<path d="M102 144.5H130C133.038 144.5 135.5 146.962 135.5 150V178C135.5 181.038 133.038 183.5 130 183.5H102C98.9624 183.5 96.5 181.038 96.5 178V150C96.5 146.962 98.9624 144.5 102 144.5Z" stroke="#A3A3A3" stroke-opacity="0.23"/>
<path d="M120 156H109C108.204 156 107.441 156.316 106.879 156.879C106.316 157.441 106 158.204 106 159V169C106 169.796 106.316 170.559 106.879 171.121C107.441 171.684 108.204 172 109 172H120M116 166V166.01M113 166V166.01M110 166V166.01M116 169V169.01M113 169V169.01M110 169V169.01M124 155H122C121.47 155 120.961 155.211 120.586 155.586C120.211 155.961 120 156.47 120 157V171C120 171.53 120.211 172.039 120.586 172.414C120.961 172.789 121.47 173 122 173H124C124.53 173 125.039 172.789 125.414 172.414C125.789 172.039 126 171.53 126 171V157C126 156.47 125.789 155.961 125.414 155.586C125.039 155.211 124.53 155 124 155ZM116 160H110V163H116V160Z" stroke="#171717" stroke-opacity="0.9" stroke-width="2" stroke-linecap="round" stroke-linejoin="round"/>
<path d="M123 178C126.866 178 130 174.866 130 171C130 167.134 126.866 164 123 164C119.134 164 116 167.134 116 171C116 174.866 119.134 178 123 178Z" fill="#7B8374" stroke="#E0E1E4" stroke-width="2" stroke-linecap="round" stroke-linejoin="round"/>
<path d="M123 169V171.2L124.6 172.2" fill="#404040"/>
<path d="M123 169V171.2L124.6 172.2" stroke="#171717" stroke-width="2" stroke-linecap="round" stroke-linejoin="round"/>
<path d="M144 102C144 98.6863 146.686 96 150 96H178C181.314 96 184 98.6863 184 102V130C184 133.314 181.314 136 178 136H150C146.686 136 144 133.314 144 130V102Z" fill="#A3A3A3" fill-opacity="0.23"/>
<path d="M150 96.5H178C181.038 96.5 183.5 98.9624 183.5 102V130C183.5 133.038 181.038 135.5 178 135.5H150C146.962 135.5 144.5 133.038 144.5 130V102C144.5 98.9624 146.962 96.5 150 96.5Z" stroke="#A3A3A3" stroke-opacity="0.23"/>
<rect x="151.5" y="105.5" width="25" height="9" rx="2.5" fill="#171717" fill-opacity="0.9"/>
<rect x="151.5" y="105.5" width="25" height="9" rx="2.5" fill="#7B8374"/>
<rect x="151.5" y="105.5" width="25" height="9" rx="2.5" stroke="#E0E1E4"/>
<rect x="152" y="116" width="24" height="8" rx="2" fill="#171717" fill-opacity="0.9"/>
<rect x="153" y="117" width="22" height="6" rx="1" stroke="#171717" stroke-opacity="0.9" stroke-width="2"/>
<path d="M156.122 120.609L158.384 126.479C158.576 126.974 158.844 127.419 159.19 127.812L160.156 128.794C160.644 129.282 161.171 129.62 161.72 129.8C162.126 129.932 162.546 130 162.971 130H167.966C170.19 130 172 128.193 172 125.971V119.085C172 118.822 171.95 118.575 171.855 118.361C171.566 117.673 170.894 117.229 170.141 117.229C169.797 117.229 169.466 117.324 169.183 117.495C168.871 116.903 168.249 116.498 167.532 116.498C167.159 116.498 166.81 116.61 166.517 116.799C166.275 116.384 165.881 116.072 165.404 115.951C164.988 115.845 164.558 115.881 164.18 116.046V111.863C164.18 110.835 163.344 110 162.316 110C161.287 110 160.45 110.835 160.45 111.863V120.399L159.648 118.929C159.305 118.329 158.661 117.956 157.965 117.956C157.548 117.956 157.138 118.087 156.811 118.325C156.1 118.837 155.815 119.772 156.123 120.605L156.122 120.609Z" fill="white" fill-opacity="0.9"/>
<path d="M156.122 120.609L158.384 126.479C158.576 126.974 158.844 127.419 159.19 127.812L160.156 128.794C160.644 129.282 161.171 129.62 161.72 129.8C162.126 129.932 162.546 130 162.971 130H167.966C170.19 130 172 128.193 172 125.971V119.085C172 118.822 171.95 118.575 171.855 118.361C171.566 117.673 170.894 117.229 170.141 117.229C169.797 117.229 169.466 117.324 169.183 117.495C168.871 116.903 168.249 116.498 167.532 116.498C167.159 116.498 166.81 116.61 166.517 116.799C166.275 116.384 165.881 116.072 165.404 115.951C164.988 115.845 164.558 115.881 164.18 116.046V111.863C164.18 110.835 163.344 110 162.316 110C161.287 110 160.45 110.835 160.45 111.863V120.399L159.648 118.929C159.305 118.329 158.661 117.956 157.965 117.956C157.548 117.956 157.138 118.087 156.811 118.325C156.1 118.837 155.815 119.772 156.123 120.605L156.122 120.609ZM157.463 119.229C157.603 119.128 157.781 119.072 157.965 119.072C158.265 119.072 158.533 119.225 158.674 119.473L160.519 122.85C160.641 123.074 160.901 123.186 161.146 123.123C161.393 123.06 161.566 122.838 161.566 122.583V111.862C161.566 111.45 161.902 111.114 162.316 111.114C162.729 111.114 163.066 111.449 163.066 111.862V117.745V117.748V120.428C163.066 120.736 163.316 120.985 163.624 120.985C163.932 120.985 164.182 120.736 164.182 120.428V117.747V117.745C164.182 117.517 164.288 117.304 164.469 117.162C164.578 117.079 164.808 116.951 165.131 117.031C165.444 117.111 165.671 117.432 165.671 117.797V118.575C165.671 118.583 165.675 118.589 165.675 118.596V120.429C165.675 120.737 165.925 120.986 166.233 120.986C166.541 120.986 166.791 120.737 166.791 120.429V118.35C166.791 117.943 167.124 117.612 167.534 117.612C167.945 117.612 168.281 117.943 168.281 118.35V118.575C168.281 118.599 168.283 118.622 168.285 118.645V119.082V119.085V120.431C168.285 120.738 168.535 120.988 168.843 120.988C169.151 120.988 169.401 120.738 169.401 120.431V119.087V119.085C169.401 118.979 169.419 118.881 169.457 118.798C169.577 118.522 169.847 118.343 170.143 118.343C170.444 118.343 170.713 118.518 170.832 118.799C170.866 118.88 170.886 118.977 170.886 119.083V125.97C170.886 127.576 169.577 128.885 167.967 128.885H162.973C162.666 128.885 162.362 128.836 162.069 128.74C161.687 128.616 161.311 128.368 160.947 128.006L160.201 127.263L160.022 127.068C159.771 126.781 159.57 126.447 159.425 126.077L157.167 120.215C157.034 119.856 157.155 119.451 157.463 119.229Z" fill="#171717" stroke="#171717" stroke-width="0.5"/>
<path d="M192 102C192 98.6863 194.686 96 198 96H226C229.314 96 232 98.6863 232 102V130C232 133.314 229.314 136 226 136H198C194.686 136 192 133.314 192 130V102Z" fill="#A3A3A3" fill-opacity="0.23"/>
<path d="M198 96.5H226C229.038 96.5 231.5 98.9624 231.5 102V130C231.5 133.038 229.038 135.5 226 135.5H198C194.962 135.5 192.5 133.038 192.5 130V102C192.5 98.9624 194.962 96.5 198 96.5Z" stroke="#A3A3A3" stroke-opacity="0.23"/>
<path d="M212 111V116L214 118M213.017 124.943C211.135 125.157 209.233 124.772 207.583 123.842C205.933 122.912 204.618 121.485 203.825 119.764C203.033 118.044 202.804 116.117 203.171 114.259C203.537 112.4 204.481 110.705 205.867 109.414C207.254 108.123 209.012 107.303 210.892 107.069C212.772 106.836 214.677 107.201 216.337 108.114C217.997 109.027 219.326 110.44 220.136 112.152C220.946 113.865 221.195 115.789 220.848 117.651" stroke="#171717" stroke-opacity="0.9" stroke-width="2" stroke-linecap="round" stroke-linejoin="round"/>
<path d="M217 126L222 123L217 120V126Z" fill="#171717" fill-opacity="0.9"/>
<path d="M217 126L222 123L217 120V126Z" fill="#525252"/>
<path d="M217 126L222 123L217 120V126Z" stroke="#171717" stroke-opacity="0.9" stroke-width="2" stroke-linecap="round" stroke-linejoin="round"/>
<path d="M217 126L222 123L217 120V126Z" stroke="#525252" stroke-width="2" stroke-linecap="round" stroke-linejoin="round"/>
<path d="M0 6C0 2.68629 2.68629 0 6 0H34C37.3137 0 40 2.68629 40 6V34C40 37.3137 37.3137 40 34 40H6C2.68629 40 0 37.3137 0 34V6Z" fill="#A3A3A3" fill-opacity="0.23"/>
<path d="M6 0.5H34C37.0376 0.5 39.5 2.96243 39.5 6V34C39.5 37.0376 37.0376 39.5 34 39.5H6C2.96243 39.5 0.5 37.0376 0.5 34V6C0.5 2.96243 2.96243 0.5 6 0.5Z" stroke="#A3A3A3" stroke-opacity="0.23"/>
<path d="M20 9.5C28.4 9.5 30.5 11.6 30.5 20C30.5 28.4 28.4 30.5 20 30.5C11.6 30.5 9.5 28.4 9.5 20C9.5 11.6 11.6 9.5 20 9.5Z" stroke="#171717" stroke-opacity="0.9" stroke-width="2" stroke-linecap="round" stroke-linejoin="round"/>
<path d="M16.5 20L18.8333 22.3334L23.5 17.6667" stroke="#171717" stroke-opacity="0.9" stroke-width="3" stroke-linecap="round" stroke-linejoin="round"/>
<path d="M16.5 20L18.8333 22.3334L23.5 17.6667" stroke="#525252" stroke-width="3" stroke-linecap="round" stroke-linejoin="round"/>
<path d="M48 6C48 2.68629 50.6863 0 54 0H82C85.3137 0 88 2.68629 88 6V34C88 37.3137 85.3137 40 82 40H54C50.6863 40 48 37.3137 48 34V6Z" fill="#A3A3A3" fill-opacity="0.23"/>
<path d="M54 0.5H82C85.0376 0.5 87.5 2.96243 87.5 6V34C87.5 37.0376 85.0376 39.5 82 39.5H54C50.9624 39.5 48.5 37.0376 48.5 34V6C48.5 2.96243 50.9624 0.5 54 0.5Z" stroke="#A3A3A3" stroke-opacity="0.23"/>
<path d="M68 16V18C68 19.1046 68.8954 20 70 20H74C75.1046 20 76 20.8954 76 22V24" stroke="#171717" stroke-opacity="0.9" stroke-width="2" stroke-linecap="round" stroke-linejoin="round"/>
<path d="M68 16V18C68 19.1046 68.8954 20 70 20H74C75.1046 20 76 20.8954 76 22V24" stroke="#525252" stroke-width="2" stroke-linecap="round" stroke-linejoin="round"/>
<path d="M68 16V18C68 19.1046 67.1046 20 66 20H62C60.8954 20 60 20.8954 60 22V24" stroke="#171717" stroke-opacity="0.9" stroke-width="2" stroke-linecap="round" stroke-linejoin="round"/>
<path d="M68 16V18C68 19.1046 67.1046 20 66 20H62C60.8954 20 60 20.8954 60 22V24" stroke="#525252" stroke-width="2" stroke-linecap="round" stroke-linejoin="round"/>
<rect x="61" y="8" width="14" height="7" rx="1" stroke="#171717" stroke-opacity="0.9" stroke-width="2"/>
<rect x="55" y="25" width="10" height="7" rx="1" stroke="#171717" stroke-opacity="0.9" stroke-width="2"/>
<rect x="71" y="25" width="10" height="7" rx="1" stroke="#171717" stroke-opacity="0.9" stroke-width="2"/>
<path d="M144 150C144 146.686 146.686 144 150 144H178C181.314 144 184 146.686 184 150V178C184 181.314 181.314 184 178 184H150C146.686 184 144 181.314 144 178V150Z" fill="#A3A3A3" fill-opacity="0.23"/>
<path d="M150 144.5H178C181.038 144.5 183.5 146.962 183.5 150V178C183.5 181.038 181.038 183.5 178 183.5H150C146.962 183.5 144.5 181.038 144.5 178V150C144.5 146.962 146.962 144.5 150 144.5Z" stroke="#A3A3A3" stroke-opacity="0.23"/>
<path d="M155 172C153.933 172 153 171.164 153 170V166L151 164L153 162V158C153 156.836 153.933 156 155 156" stroke="#171717" stroke-opacity="0.9" stroke-width="2" stroke-linecap="round" stroke-linejoin="round"/>
<path d="M173 172C174.067 172 175 171.164 175 170V166L177 164L175 162V158C175 156.836 174.067 156 173 156" stroke="#171717" stroke-opacity="0.9" stroke-width="2" stroke-linecap="round" stroke-linejoin="round"/>
<path d="M159 162C160.105 162 161 162.895 161 164C161 165.105 160.105 166 159 166C157.895 166 157 165.105 157 164C157 162.895 157.895 162 159 162ZM164 162C165.105 162 166 162.895 166 164C166 165.105 165.105 166 164 166C162.895 166 162 165.105 162 164C162 162.895 162.895 162 164 162ZM169 162C170.105 162 171 162.895 171 164C171 165.105 170.105 166 169 166C167.895 166 167 165.105 167 164C167 162.895 167.895 162 169 162Z" fill="#7B8374"/>
<path d="M192 150C192 146.686 194.686 144 198 144H226C229.314 144 232 146.686 232 150V178C232 181.314 229.314 184 226 184H198C194.686 184 192 181.314 192 178V150Z" fill="#A3A3A3" fill-opacity="0.23"/>
<path d="M198 144.5H226C229.038 144.5 231.5 146.962 231.5 150V178C231.5 181.038 229.038 183.5 226 183.5H198C194.962 183.5 192.5 181.038 192.5 178V150C192.5 146.962 194.962 144.5 198 144.5Z" stroke="#A3A3A3" stroke-opacity="0.23"/>
<rect x="201" y="153" width="22" height="22" rx="3" stroke="#171717" stroke-opacity="0.9" stroke-width="2"/>
<path d="M214.98 170C214.322 170 213.797 169.843 213.405 169.53C213.013 169.201 212.684 168.701 212.418 168.03C212.152 167.358 211.878 166.507 211.595 165.478L207.201 169.396C206.997 169.575 206.793 169.701 206.589 169.776C206.386 169.851 206.159 169.888 205.908 169.888C205.516 169.888 205.234 169.769 205.062 169.53C204.905 169.291 205.046 168.978 205.485 168.59L211.125 163.597C210.937 162.866 210.765 162.254 210.608 161.761C210.467 161.269 210.326 160.881 210.185 160.597C210.044 160.299 209.895 160.09 209.739 159.97C209.598 159.836 209.433 159.769 209.245 159.769C208.963 159.769 208.72 159.821 208.517 159.925C208.329 160.015 208.172 160.104 208.047 160.194C207.874 160.284 207.694 160.284 207.506 160.194C207.318 160.104 207.177 159.97 207.083 159.791C206.973 159.627 206.919 159.448 206.919 159.254C206.934 159.06 207.028 158.896 207.201 158.761C207.373 158.642 207.671 158.485 208.094 158.291C208.532 158.097 209.018 158 209.551 158C209.974 158 210.342 158.097 210.655 158.291C210.984 158.47 211.266 158.746 211.501 159.119C211.752 159.478 211.972 159.918 212.16 160.44C212.363 160.948 212.559 161.53 212.747 162.187L216.836 158.56C217.056 158.366 217.252 158.224 217.424 158.134C217.596 158.045 217.792 158 218.012 158C218.278 158 218.505 158.06 218.693 158.179C218.881 158.284 218.983 158.433 218.999 158.627C219.014 158.806 218.889 159.007 218.623 159.231L213.217 164.022C213.436 164.888 213.625 165.604 213.781 166.172C213.938 166.724 214.095 167.157 214.251 167.47C214.408 167.784 214.58 168 214.768 168.119C214.956 168.239 215.191 168.299 215.473 168.299C215.708 168.299 215.975 168.194 216.272 167.985C216.57 167.761 216.891 167.455 217.236 167.067C217.361 166.933 217.487 166.851 217.612 166.821C217.737 166.791 217.886 166.836 218.059 166.955C218.309 167.104 218.458 167.261 218.505 167.425C218.568 167.575 218.56 167.716 218.482 167.851C218.341 168.075 218.098 168.358 217.753 168.701C217.424 169.045 217.017 169.351 216.531 169.619C216.061 169.873 215.544 170 214.98 170Z" fill="#171717" fill-opacity="0.9"/>
<path d="M218.012 157.775C218.307 157.775 218.574 157.842 218.802 157.983C219.047 158.12 219.2 158.33 219.223 158.607L219.222 158.718C219.196 158.972 219.007 159.202 218.768 159.403L218.767 159.402L213.469 164.099C213.673 164.904 213.85 165.574 213.998 166.11L214.113 166.496C214.228 166.857 214.341 167.148 214.452 167.369C214.6 167.665 214.75 167.841 214.889 167.93C215.032 168.021 215.223 168.073 215.474 168.073C215.643 168.073 215.863 167.997 216.142 167.802C216.422 167.59 216.731 167.297 217.067 166.918L217.071 166.914C217.214 166.761 217.377 166.645 217.56 166.602C217.772 166.551 217.983 166.633 218.173 166.762C218.431 166.915 218.634 167.103 218.712 167.338C218.801 167.549 218.791 167.766 218.676 167.964L218.672 167.971C218.517 168.216 218.261 168.514 217.912 168.861L217.911 168.86C217.565 169.221 217.14 169.54 216.64 169.816L216.446 169.913C215.994 170.121 215.504 170.225 214.979 170.225C214.287 170.225 213.707 170.059 213.265 169.705L213.261 169.702C212.831 169.342 212.484 168.806 212.209 168.113C211.969 167.509 211.726 166.765 211.477 165.884L207.351 169.563L207.35 169.564C207.13 169.757 206.902 169.901 206.667 169.987C206.435 170.072 206.181 170.113 205.908 170.113C205.47 170.113 205.108 169.977 204.88 169.661L204.874 169.653C204.744 169.456 204.75 169.234 204.845 169.023C204.934 168.824 205.107 168.623 205.336 168.421L210.871 163.521C210.697 162.85 210.539 162.286 210.394 161.829L210.392 161.823C210.252 161.337 210.116 160.963 209.983 160.697L209.981 160.693C209.847 160.408 209.717 160.237 209.603 160.149L209.593 160.142L209.584 160.133C209.483 160.037 209.373 159.994 209.245 159.994C208.991 159.994 208.784 160.041 208.619 160.126L208.613 160.129C208.434 160.215 208.289 160.297 208.178 160.377L208.164 160.387L208.15 160.394C207.91 160.518 207.656 160.515 207.409 160.397C207.186 160.291 207.013 160.129 206.896 159.915V159.916C206.762 159.716 206.693 159.493 206.693 159.254V159.245L206.694 159.235C206.716 158.971 206.847 158.752 207.062 158.584L207.072 158.576L207.238 158.472C207.426 158.361 207.682 158.233 208 158.087L208.003 158.085C208.473 157.877 208.99 157.775 209.551 157.775C210.009 157.775 210.42 157.881 210.773 158.1H210.772C211.134 158.299 211.437 158.599 211.686 158.99C211.949 159.367 212.176 159.823 212.368 160.356C212.539 160.782 212.702 161.258 212.861 161.783L216.688 158.392C216.914 158.191 217.126 158.036 217.32 157.935C217.529 157.826 217.761 157.775 218.012 157.775Z" stroke="#171717" stroke-opacity="0.9" stroke-width="0.45"/>
<rect x="214" y="166" width="14" height="14" rx="7" stroke="#E0E1E4" stroke-width="2"/>
<circle cx="221" cy="173" r="6" fill="#7B8374"/>
<path d="M217.305 174.53L218.228 174.148M218.228 171.852L217.305 171.469M219.852 170.228L219.469 169.304M219.852 175.772L219.469 176.695M222.148 170.228L222.531 169.304M222.53 176.696L222.148 175.772M223.772 171.852L224.696 171.469M223.772 174.148L224.696 174.531M224 173C224 174.657 222.657 176 221 176C219.343 176 218 174.657 218 173C218 171.343 219.343 170 221 170C222.657 170 224 171.343 224 173Z" stroke="#171717" stroke-opacity="0.9" stroke-width="1.5" stroke-linecap="round" stroke-linejoin="round"/>
</svg>
