<svg viewBox="0 0 264 268" fill="none" xmlns="http://www.w3.org/2000/svg">
<path d="M259.439 165.111C239.118 182.808 212.211 188.638 186.175 184.557C181.066 183.756 166.462 181.404 166.426 176.084C166.339 163.616 171.728 170.218 178.014 171.866C200.013 177.647 225.699 176.441 245.137 162.431C239.935 149.966 227.168 144.272 216.478 137.048C229.334 116.327 233.981 93.6003 232.204 70.0361C230.847 69.2542 230.464 68.946 228.841 69.5228C226.333 70.4224 218.048 75.962 215.28 77.8651C158.866 116.76 125.693 214.998 189.544 257.945C186.328 274.316 172.331 259.202 166.408 252.808C114.174 196.472 158.255 92.1877 226.357 59.0814C230.152 57.2389 236.211 54.8706 237.932 54.2306C239.654 53.5905 241.002 54.6469 241.002 54.6469C247.42 81.9371 242.459 107.533 232.38 133.757C243.815 141.646 254.848 151.975 259.418 165.091L259.439 165.111Z" fill="#F0F1E9"/>
<path d="M173.669 87.704C173.462 88.7021 166.571 95.7568 165.178 95.1372C155.639 67.4361 134.955 44.1303 110.2 27.8707C107.629 26.1739 93.9937 17.4975 92.1407 18.6334C77.8061 53.7482 74.5935 92.2385 87.7056 127.406C63.805 126.32 39.1206 134.789 18.7061 147.159C33.9641 169.169 60.0017 182.763 86.817 188.203C84.6509 198.844 81.0533 210.101 84.4111 220.781C102.69 219.584 119.181 211.424 132.575 199.302C136.088 212.273 130.375 216.524 118.535 222.028C104.919 228.354 89.2794 232.404 74.3679 232.525C70.1859 220.476 71.8666 207.569 73.4362 195.177C43.3903 189.624 19.2116 168.907 2.51063 145.468C1.92113 141.611 26.8528 129.198 38.6753 124.841C50.4978 120.483 72.3007 116.701 72.3007 116.701C64.2674 83.4435 68.4959 46.402 81.756 14.1889C82.5693 12.2101 86.3538 2.7713 87.6035 2.58788C112.608 15.1332 137.484 31.3895 154.595 53.159C159.033 58.7907 174.892 81.8168 173.677 87.6877L173.669 87.704Z" fill="#F0F1E9"/>
<path d="M259.439 165.111C239.118 182.808 212.211 188.638 186.175 184.557C181.066 183.756 166.462 181.404 166.426 176.084C166.339 163.616 171.728 170.218 178.014 171.866C200.013 177.647 225.699 176.441 245.137 162.431C239.935 149.966 227.168 144.272 216.478 137.048C229.334 116.327 233.981 93.6003 232.204 70.0361C230.847 69.2542 230.464 68.946 228.841 69.5228C226.333 70.4224 218.048 75.962 215.28 77.8651C158.866 116.76 125.693 214.998 189.544 257.945C186.328 274.316 172.331 259.202 166.408 252.808C114.174 196.472 158.255 92.1877 226.357 59.0814C230.152 57.2389 236.211 54.8706 237.932 54.2306C239.654 53.5905 241.002 54.6469 241.002 54.6469C247.42 81.9371 242.459 107.533 232.38 133.757C243.815 141.646 254.848 151.975 259.418 165.091L259.439 165.111Z" stroke="#F0F1E9" stroke-width="5"/>
<path d="M173.669 87.704C173.462 88.7021 166.571 95.7568 165.178 95.1372C155.639 67.4361 134.955 44.1303 110.2 27.8707C107.629 26.1739 93.9937 17.4975 92.1407 18.6334C77.8061 53.7482 74.5935 92.2385 87.7056 127.406C63.805 126.32 39.1206 134.789 18.7061 147.159C33.9641 169.169 60.0017 182.763 86.817 188.203C84.6509 198.844 81.0533 210.101 84.4111 220.781C102.69 219.584 119.181 211.424 132.575 199.302C136.088 212.273 130.375 216.524 118.535 222.028C104.919 228.354 89.2794 232.404 74.3679 232.525C70.1859 220.476 71.8666 207.569 73.4362 195.177C43.3903 189.624 19.2116 168.907 2.51063 145.468C1.92113 141.611 26.8528 129.198 38.6753 124.841C50.4978 120.483 72.3007 116.701 72.3007 116.701C64.2674 83.4435 68.4959 46.402 81.756 14.1889C82.5693 12.2101 86.3538 2.7713 87.6035 2.58788C112.608 15.1332 137.484 31.3895 154.595 53.159C159.033 58.7907 174.892 81.8168 173.677 87.6877L173.669 87.704Z" stroke="#F0F1E9" stroke-width="5"/>
</svg>
