<svg width="54" height="54" viewBox="0 0 54 54" fill="none" xmlns="http://www.w3.org/2000/svg">
<path d="M0 6C0 2.68629 2.68629 0 6 0H48C51.3137 0 54 2.68629 54 6V48C54 51.3137 51.3137 54 48 54H6C2.68629 54 0 51.3137 0 48V6Z" fill="#F4F4F5"/>
<path d="M14.25 32.25H21.75V39.75H14.25V32.25ZM35.475 23.475L31.275 19.275C30.975 18.975 30.975 18.525 31.275 18.225L35.475 14.025C35.775 13.725 36.225 13.725 36.525 14.025L40.725 18.225C41.025 18.525 41.025 18.975 40.725 19.275L36.525 23.475C36.225 23.775 35.775 23.775 35.475 23.475Z" fill="#38AD3D"/>
<path d="M18 23.25C20.4853 23.25 22.5 21.2353 22.5 18.75C22.5 16.2647 20.4853 14.25 18 14.25C15.5147 14.25 13.5 16.2647 13.5 18.75C13.5 21.2353 15.5147 23.25 18 23.25Z" fill="#FFD23A"/>
<path d="M36 40.5C38.4853 40.5 40.5 38.4853 40.5 36C40.5 33.5147 38.4853 31.5 36 31.5C33.5147 31.5 31.5 33.5147 31.5 36C31.5 38.4853 33.5147 40.5 36 40.5Z" fill="#306AFE"/>
<path d="M17.25 27H18.75V30.75H17.25V27Z" fill="#94A3B8"/>
<path d="M18 24.75L15.75 27.75H20.25L18 24.75Z" fill="#94A3B8"/>
<path d="M24 18H27.75V19.5H24V18Z" fill="#94A3B8"/>
<path d="M30 18.75L27 16.5V21L30 18.75Z" fill="#94A3B8"/>
<path d="M35.25 24.75H36.75V28.5H35.25V24.75Z" fill="#94A3B8"/>
<path d="M36 30.75L38.25 27.75H33.75L36 30.75Z" fill="#94A3B8"/>
</svg>
