<svg width="54" height="54" viewBox="0 0 54 54" fill="none" xmlns="http://www.w3.org/2000/svg">
<path d="M0 6C0 2.68629 2.68629 0 6 0H48C51.3137 0 54 2.68629 54 6V48C54 51.3137 51.3137 54 48 54H6C2.68629 54 0 51.3137 0 48V6Z" fill="#F4F4F5"/>
<rect x="13" y="13" width="28" height="28" rx="4" fill="white"/>
<path d="M31.1706 21.3518L35.6696 26.1506C35.7743 26.2621 35.8574 26.3944 35.9141 26.5402C35.9708 26.6859 36 26.8422 36 27C36 27.1578 35.9708 27.3141 35.9141 27.4598C35.8574 27.6056 35.7743 27.7379 35.6696 27.8494L31.1706 32.6482C30.9594 32.8734 30.6729 33 30.3742 33C30.0756 33 29.7891 32.8734 29.5779 32.6482C29.3667 32.4229 29.2481 32.1174 29.2481 31.7988C29.2481 31.4802 29.3667 31.1747 29.5779 30.9494L33.2828 27L29.5779 23.0506C29.4734 22.9391 29.3904 22.8066 29.3338 22.6609C29.2772 22.5152 29.2481 22.359 29.2481 22.2012C29.2481 22.0435 29.2772 21.8873 29.3338 21.7415C29.3904 21.5958 29.4734 21.4634 29.5779 21.3518C29.7891 21.1266 30.0756 21 30.3742 21C30.5221 21 30.6686 21.0311 30.8052 21.0914C30.9418 21.1518 31.066 21.2403 31.1706 21.3518ZM24.4221 23.0506L20.7172 27L24.4221 30.9494C24.6333 31.1747 24.7519 31.4802 24.7519 31.7988C24.7519 32.1174 24.6333 32.4229 24.4221 32.6482C24.2109 32.8734 23.9244 33 23.6258 33C23.3271 33 23.0406 32.8734 22.8294 32.6482L18.3304 27.8494C18.2257 27.7379 18.1426 27.6056 18.0859 27.4598C18.0292 27.3141 18 27.1578 18 27C18 26.8422 18.0292 26.6859 18.0859 26.5402C18.1426 26.3944 18.2257 26.2621 18.3304 26.1506L22.8294 21.3518C23.0406 21.1266 23.3271 21 23.6258 21C23.9244 21 24.2109 21.1266 24.4221 21.3518C24.6333 21.5771 24.7519 21.8826 24.7519 22.2012C24.7519 22.5198 24.6333 22.8253 24.4221 23.0506Z" fill="#306AFE"/>
</svg>
