<svg xmlns="http://www.w3.org/2000/svg" width="54" height="54" viewBox="0 0 54 54" fill="none">
  <path d="M0 6C0 2.68629 2.68629 0 6 0H48C51.3137 0 54 2.68629 54 6V48C54 51.3137 51.3137 54 48 54H6C2.68629 54 0 51.3137 0 48V6Z" fill="#F4F4F5"/>
  <path fill-rule="evenodd" clip-rule="evenodd" d="M26.6127 23.2349C22.9988 23.2349 20.0696 26.1236 20.0696 29.6893V38.2781C20.0696 38.6768 20.3971 39 20.8012 39C21.042 39 21.2569 38.882 21.3906 38.7076H21.3957C22.5916 37.1478 24.4807 36.144 26.6127 36.144H34.4569C38.0708 36.144 40.9999 33.2537 40.9999 29.6893C40.9999 26.1236 38.0708 23.2349 34.4569 23.2349H26.6127Z" fill="#306AFE"/>
  <path fill-rule="evenodd" clip-rule="evenodd" d="M31.7241 19.1167H23.5746C19.9643 19.1167 17.0349 22.007 17.0349 25.5711V34.1602C17.0349 34.5603 17.3626 34.8835 17.7664 34.8835C18.0072 34.8835 18.2221 34.7638 18.3573 34.5859H18.3609C19.5551 33.0329 21.4495 32.0256 23.5746 32.0256H31.7241C35.3361 32.0256 38.2669 29.139 38.2669 25.5711C38.2669 22.007 35.3361 19.1167 31.7241 19.1167Z" fill="#38AD3D"/>
  <path fill-rule="evenodd" clip-rule="evenodd" d="M28.6893 15H20.5428C16.9311 15 14 17.8887 14 21.453V30.0437C14 30.4419 14.3258 30.7634 14.7313 30.7634C14.9743 30.7634 15.1875 30.6471 15.3224 30.4678V30.4692H15.326C16.52 28.9146 18.4129 27.9072 20.5428 27.9072H28.6893C32.2996 27.9072 35.2304 25.0204 35.2304 21.453C35.2304 17.8887 32.2996 15 28.6893 15Z" fill="#FFD23A"/>
</svg>