<svg xmlns="http://www.w3.org/2000/svg" width="28" height="28" viewBox="0 0 28 28" fill="none">
<path fill-rule="evenodd" clip-rule="evenodd" d="M9.03775 10.0556C8.41169 10.0556 7.90261 10.5652 7.90261 11.1935V13.97C7.90261 14.6009 8.41169 15.1118 9.03775 15.1118C9.66511 15.1118 10.1742 14.6009 10.1742 13.97V11.1935C10.1742 10.5652 9.66511 10.0556 9.03775 10.0556ZM16.9442 10.0517H16.9429C16.3169 10.0517 15.8078 10.5639 15.8078 11.1909V13.9725C15.8078 14.6034 16.3169 15.113 16.9429 15.113H16.9442C17.5728 15.113 18.0819 14.6034 18.0819 13.9725V11.1909C18.0819 10.5639 17.5728 10.0517 16.9442 10.0517ZM21.9019 18.1745C21.9019 19.1796 21.0908 19.9937 20.0893 19.9937H10.5646C9.0528 20.0956 8.15419 20.4788 7.38029 20.9019C6.47397 21.3986 4.66262 23.7119 4.46979 23.8783C4.27824 24.0422 4.11369 23.6564 4.11369 23.6564V7.21075C4.11369 6.2083 4.92487 5.39292 5.92632 5.39292H20.0893C21.0908 5.39292 21.9019 6.2083 21.9019 7.21075V18.1745ZM24.0219 6.67407L24.0271 6.66632L21.3814 4.89364L21.3788 4.89622C20.9032 4.56852 20.3272 4.375 19.705 4.375H6.09096C4.45316 4.375 3.12518 5.70515 3.12518 7.34882V19.7718V19.8027V23.2797C3.12518 23.2797 3.09947 23.8964 3.65612 24.4215C4.21277 24.9505 5.86856 26.2613 5.86856 26.2613C5.86856 26.2613 5.98041 26.4587 6.62061 26.4587C7.25954 26.4587 7.28011 26.3555 7.72234 25.8691C8.16457 25.384 9.54526 23.6281 10.8604 23.2552C12.1768 22.8836 12.6319 22.7495 13.4649 22.7495C13.4752 22.7495 13.4816 22.7482 13.4881 22.7482H19.705H22.244C23.8818 22.7482 25.2085 21.4154 25.2085 19.7718V9.04925C25.2085 8.07647 24.7418 7.21464 24.0219 6.67407Z" fill="white"/>
</svg>