<svg width="16" height="16" viewBox="0 0 16 16" fill="none" xmlns="http://www.w3.org/2000/svg">
<path d="M3.64188 2.95509C4.81054 1.9446 6.33396 1.33334 8.00016 1.33334C11.682 1.33334 14.6668 4.31811 14.6668 8.00001C14.6668 9.42408 14.2203 10.7439 13.4596 11.8271L11.3335 8.00001H13.3335C13.3335 5.05449 10.9457 2.66668 8.00016 2.66668C6.56671 2.66668 5.26534 3.23219 4.30698 4.15229L3.64188 2.95509ZM12.3584 13.0449C11.1898 14.0554 9.66636 14.6667 8.00016 14.6667C4.31826 14.6667 1.3335 11.6819 1.3335 8.00001C1.3335 6.57592 1.78002 5.25612 2.5407 4.17297L4.66683 8.00001H2.66683C2.66683 10.9455 5.05464 13.3333 8.00016 13.3333C9.43363 13.3333 10.735 12.7678 11.6934 11.8477L12.3584 13.0449Z" fill="#111115"/>
</svg>
