<svg xmlns="http://www.w3.org/2000/svg" width="36" height="65" viewBox="0 0 36 65" fill="none">
  <path d="M5.87702e-05 63.1068C5.87702e-05 63.9495 0.683192 64.6326 1.52588 64.6326C2.36857 64.6326 3.0517 63.9495 3.0517 63.1068C3.0517 62.2641 2.36857 61.581 1.52588 61.581C0.683192 61.581 5.87702e-05 62.2641 5.87702e-05 63.1068ZM35.7282 2.30911C35.8399 2.19738 35.8399 2.01624 35.7282 1.90451L33.9075 0.0838408C33.7958 -0.0278847 33.6146 -0.0278847 33.5029 0.0838408C33.3912 0.195566 33.3912 0.376709 33.5029 0.488435L35.1213 2.10681L33.5029 3.72519C33.3912 3.83691 33.3912 4.01806 33.5029 4.12978C33.6146 4.24151 33.7958 4.24151 33.9075 4.12978L35.7282 2.30911ZM28.5259 2.10681V2.3929H35.5259V2.10681V1.82072H28.5259V2.10681ZM1.52588 63.1068V63.3929H8.52588V63.1068V62.8207H1.52588V63.1068ZM18.5259 53.1068H18.812V12.1068H18.5259H18.2398V53.1068H18.5259ZM8.52588 63.1068V63.3929C14.2067 63.3929 18.812 58.7877 18.812 53.1068H18.5259H18.2398C18.2398 58.4717 13.8907 62.8207 8.52588 62.8207V63.1068ZM28.5259 2.10681V1.82072C22.845 1.82072 18.2398 6.42596 18.2398 12.1068H18.5259H18.812C18.812 6.74197 23.161 2.3929 28.5259 2.3929V2.10681Z" fill="#A1A1AA"/>
</svg>
