<svg xmlns="http://www.w3.org/2000/svg" width="4" height="23" viewBox="0 0 4 23" fill="none">
  <path d="M1.9541 1.49012e-05C1.17267 1.49353e-05 0.539199 0.633488 0.539199 1.41492C0.5392 2.19635 1.17267 2.82982 1.9541 2.82982C2.73553 2.82982 3.369 2.19635 3.369 1.41492C3.369 0.633488 2.73553 1.4867e-05 1.9541 1.49012e-05ZM1.76651 22.6025C1.87012 22.7061 2.03809 22.7061 2.14169 22.6025L3.83002 20.9142C3.93362 20.8106 3.93362 20.6426 3.83002 20.539C3.72641 20.4354 3.55844 20.4354 3.45483 20.539L1.9541 22.0397L0.453372 20.539C0.349768 20.4354 0.181793 20.4354 0.0781896 20.539C-0.0254142 20.6426 -0.0254142 20.8106 0.0781896 20.9142L1.76651 22.6025ZM1.9541 1.41492L1.68881 1.41492L1.68881 22.4149L1.9541 22.4149L2.2194 22.4149L2.2194 1.41492L1.9541 1.41492Z" fill="#A1A1AA"/>
</svg>