<svg xmlns="http://www.w3.org/2000/svg" width="15" height="5" viewBox="0 0 15 5" fill="none">
  <path d="M-0.000429511 2.10681C-0.000429511 2.9495 0.682703 3.63263 1.52539 3.63263C2.36808 3.63263 3.05121 2.9495 3.05121 2.10681C3.05121 1.26412 2.36808 0.580991 1.52539 0.580991C0.682703 0.580991 -0.000429511 1.26412 -0.000429511 2.10681ZM14.7277 2.30911C14.8394 2.19738 14.8394 2.01624 14.7277 1.90451L12.907 0.0838408C12.7953 -0.0278847 12.6141 -0.0278847 12.5024 0.0838408C12.3907 0.195566 12.3907 0.376709 12.5024 0.488435L14.1208 2.10681L12.5024 3.72519C12.3907 3.83691 12.3907 4.01806 12.5024 4.12978C12.6141 4.24151 12.7953 4.24151 12.907 4.12978L14.7277 2.30911ZM1.52539 2.10681V2.3929H14.5254V2.10681V1.82072H1.52539V2.10681Z" fill="#A1A1AA"/>
</svg>