<svg xmlns="http://www.w3.org/2000/svg" width="24" height="65" viewBox="0 0 24 65" fill="none">
  <path d="M-0.000429511 63.1068C-0.000429511 63.9495 0.682703 64.6326 1.52539 64.6326C2.36808 64.6326 3.05121 63.9495 3.05121 63.1068C3.05121 62.2641 2.36808 61.581 1.52539 61.581C0.682703 61.581 -0.000429511 62.2641 -0.000429511 63.1068ZM23.7277 2.30911C23.8394 2.19738 23.8394 2.01624 23.7277 1.90451L21.907 0.0838408C21.7953 -0.0278847 21.6141 -0.0278847 21.5024 0.0838408C21.3907 0.195566 21.3907 0.376709 21.5024 0.488435L23.1208 2.10681L21.5024 3.72519C21.3907 3.83691 21.3907 4.01806 21.5024 4.12978C21.6141 4.24151 21.7953 4.24151 21.907 4.12978L23.7277 2.30911ZM22.5254 2.10681V2.3929H23.5254V2.10681V1.82072H22.5254V2.10681ZM1.52539 63.1068V63.3929H2.52539V63.1068V62.8207H1.52539V63.1068ZM12.5254 53.1068H12.8115V12.1068H12.5254H12.2393V53.1068H12.5254ZM2.52539 63.1068V63.3929C8.20624 63.3929 12.8115 58.7877 12.8115 53.1068H12.5254H12.2393C12.2393 58.4717 7.89023 62.8207 2.52539 62.8207V63.1068ZM22.5254 2.10681V1.82072C16.8445 1.82072 12.2393 6.42596 12.2393 12.1068H12.5254H12.8115C12.8115 6.74197 17.1605 2.3929 22.5254 2.3929V2.10681Z" fill="#A1A1AA"/>
</svg>