<svg xmlns="http://www.w3.org/2000/svg" width="33" height="90" viewBox="0 0 33 90" fill="none">
  <path d="M0.000136971 1.41492C0.000136971 0.633492 0.63361 1.52588e-05 1.41504 1.52588e-05C2.19647 1.52588e-05 2.82994 0.633492 2.82994 1.41492C2.82994 2.19635 2.19647 2.82982 1.41504 2.82982C0.63361 2.82982 0.000136971 2.19635 0.000136971 1.41492ZM32.6026 87.2273C32.7062 87.3309 32.7062 87.4989 32.6026 87.6025L30.9143 89.2908C30.8107 89.3944 30.6427 89.3944 30.5391 89.2908C30.4355 89.1872 30.4355 89.0193 30.5391 88.9156L32.0399 87.4149L30.5391 85.9142C30.4355 85.8106 30.4355 85.6426 30.5391 85.539C30.6427 85.4354 30.8107 85.4354 30.9143 85.539L32.6026 87.2273ZM1.41504 1.41492V1.14962H6.91504V1.41492V1.68021H1.41504V1.41492ZM16.915 11.4149H17.1803V77.4149H16.915H16.6497V11.4149H16.915ZM26.915 87.4149V87.1496H32.415V87.4149V87.6802H26.915V87.4149ZM16.915 77.4149H17.1803C17.1803 82.7912 21.5387 87.1496 26.915 87.1496V87.4149V87.6802C21.2457 87.6802 16.6497 83.0843 16.6497 77.4149H16.915ZM6.91504 1.41492V1.14962C12.5844 1.14962 17.1803 5.74555 17.1803 11.4149H16.915H16.6497C16.6497 6.03859 12.2914 1.68021 6.91504 1.68021V1.41492Z" fill="#A1A1AA"/>
</svg>
