<svg xmlns="http://www.w3.org/2000/svg" width="16" height="5" viewBox="0 0 16 5" fill="none">
  <path d="M5.87702e-05 2.10681C5.87702e-05 2.9495 0.683192 3.63263 1.52588 3.63263C2.36857 3.63263 3.0517 2.9495 3.0517 2.10681C3.0517 1.26412 2.36857 0.580991 1.52588 0.580991C0.683192 0.580991 5.87702e-05 1.26412 5.87702e-05 2.10681ZM15.7282 2.30911C15.8399 2.19738 15.8399 2.01624 15.7282 1.90451L13.9075 0.0838408C13.7958 -0.0278847 13.6146 -0.0278847 13.5029 0.0838408C13.3912 0.195566 13.3912 0.376709 13.5029 0.488435L15.1213 2.10681L13.5029 3.72519C13.3912 3.83691 13.3912 4.01806 13.5029 4.12978C13.6146 4.24151 13.7958 4.24151 13.9075 4.12978L15.7282 2.30911ZM1.52588 2.10681V2.3929H15.5259V2.10681V1.82072H1.52588V2.10681Z" fill="#A1A1AA"/>
</svg>
