<svg xmlns="http://www.w3.org/2000/svg" width="27" height="5" viewBox="0 0 27 5" fill="none">
  <path d="M5.87702e-05 2.10681C5.86965e-05 2.9495 0.683192 3.63263 1.52588 3.63263C2.36857 3.63263 3.0517 2.9495 3.0517 2.10681C3.0517 1.26412 2.36857 0.580991 1.52588 0.580991C0.683192 0.580991 5.88438e-05 1.26412 5.87702e-05 2.10681ZM26.1352 2.30911C26.247 2.19739 26.247 2.01624 26.1352 1.90452L24.3146 0.0838428C24.2028 -0.0278827 24.0217 -0.0278828 23.91 0.0838428C23.7982 0.195568 23.7982 0.376711 23.91 0.488437L25.5283 2.10681L23.91 3.72519C23.7982 3.83692 23.7982 4.01806 23.91 4.12978C24.0217 4.24151 24.2028 4.24151 24.3146 4.12978L26.1352 2.30911ZM1.52588 2.10681L1.52588 2.3929L25.9329 2.3929L25.9329 2.10681L25.9329 1.82072L1.52588 1.82072L1.52588 2.10681Z" fill="#A1A1AA"/>
</svg>
