<svg width="106" height="56" viewBox="0 0 106 56" fill="none" xmlns="http://www.w3.org/2000/svg">
<g filter="url(#filter0_dd_333_607)">
<g clip-path="url(#clip0_333_607)">
<mask id="path-3-inside-1_333_607" fill="white">
<path d="M3 2H56.5284V17.2381H3V2Z"/>
</mask>
<path d="M3 2H56.5284V17.2381H3V2Z" fill="white"/>
<path d="M56.5284 2H56.0522V17.2381H56.5284H57.0045V2H56.5284Z" fill="#E0E2E7" mask="url(#path-3-inside-1_333_607)"/>
<rect x="7.76172" y="7.26172" width="44.0045" height="4.71477" rx="2.35739" fill="#D4D4D8"/>
<rect width="15.2381" height="15.2381" transform="translate(56.5283 2.00012)" fill="white"/>
</g>
<rect x="3.25" y="2.25" width="68.2664" height="14.7381" rx="3.55952" stroke="#D4D4D8" stroke-width="0.5"/>
<g clip-path="url(#clip1_333_607)">
<rect x="3" y="19.238" width="100" height="39.9057" rx="3.80952" fill="white"/>
<rect x="8.71436" y="26.8568" width="44.0045" height="4.71477" rx="2.35739" fill="#D4D4D8"/>
<g clip-path="url(#clip2_333_607)">
<g filter="url(#filter1_d_333_607)">
<mask id="path-11-inside-2_333_607" fill="white">
<path d="M8.71436 39.1909H97.2858V51.5247H8.71436V39.1909Z"/>
</mask>
<path d="M97.2858 51.5247V51.0485H8.71436V51.5247V52.0009H97.2858V51.5247Z" fill="#D4D4D8" mask="url(#path-11-inside-2_333_607)"/>
<rect x="41.999" y="43.0006" width="22.0023" height="4.71477" rx="2.35739" fill="#D4D4D8"/>
</g>
</g>
<rect x="8.95245" y="39.429" width="88.0952" height="11.8576" rx="3.57143" stroke="#D4D4D8" stroke-width="0.476191"/>
</g>
<rect x="3.25" y="19.488" width="99.5" height="39.4057" rx="3.55952" stroke="#D4D4D8" stroke-width="0.5"/>
</g>
<defs>
<filter id="filter0_dd_333_607" x="0" y="0" width="106" height="63.1438" filterUnits="userSpaceOnUse" color-interpolation-filters="sRGB">
<feFlood flood-opacity="0" result="BackgroundImageFix"/>
<feColorMatrix in="SourceAlpha" type="matrix" values="0 0 0 0 0 0 0 0 0 0 0 0 0 0 0 0 0 0 127 0" result="hardAlpha"/>
<feMorphology radius="1" operator="erode" in="SourceAlpha" result="effect1_dropShadow_333_607"/>
<feOffset dy="1"/>
<feGaussianBlur stdDeviation="1"/>
<feColorMatrix type="matrix" values="0 0 0 0 0 0 0 0 0 0 0 0 0 0 0 0 0 0 0.1 0"/>
<feBlend mode="normal" in2="BackgroundImageFix" result="effect1_dropShadow_333_607"/>
<feColorMatrix in="SourceAlpha" type="matrix" values="0 0 0 0 0 0 0 0 0 0 0 0 0 0 0 0 0 0 127 0" result="hardAlpha"/>
<feOffset dy="1"/>
<feGaussianBlur stdDeviation="1.5"/>
<feColorMatrix type="matrix" values="0 0 0 0 0 0 0 0 0 0 0 0 0 0 0 0 0 0 0.1 0"/>
<feBlend mode="normal" in2="effect1_dropShadow_333_607" result="effect2_dropShadow_333_607"/>
<feBlend mode="normal" in="SourceGraphic" in2="effect2_dropShadow_333_607" result="shape"/>
</filter>
<filter id="filter1_d_333_607" x="8.10836" y="38.8879" width="89.7833" height="13.5459" filterUnits="userSpaceOnUse" color-interpolation-filters="sRGB">
<feFlood flood-opacity="0" result="BackgroundImageFix"/>
<feColorMatrix in="SourceAlpha" type="matrix" values="0 0 0 0 0 0 0 0 0 0 0 0 0 0 0 0 0 0 127 0" result="hardAlpha"/>
<feOffset dy="0.302999"/>
<feGaussianBlur stdDeviation="0.302999"/>
<feColorMatrix type="matrix" values="0 0 0 0 0 0 0 0 0 0 0 0 0 0 0 0 0 0 0.05 0"/>
<feBlend mode="normal" in2="BackgroundImageFix" result="effect1_dropShadow_333_607"/>
<feBlend mode="normal" in="SourceGraphic" in2="effect1_dropShadow_333_607" result="shape"/>
</filter>
<clipPath id="clip0_333_607">
<rect x="3" y="2" width="68.7664" height="15.2381" rx="3.80952" fill="white"/>
</clipPath>
<clipPath id="clip1_333_607">
<rect x="3" y="19.238" width="100" height="39.9057" rx="3.80952" fill="white"/>
</clipPath>
<clipPath id="clip2_333_607">
<rect x="8.71436" y="39.1909" width="88.5714" height="12.3338" rx="3.80952" fill="white"/>
</clipPath>
</defs>
</svg>
