<svg width="106" height="129" viewBox="0 0 106 129" fill="none" xmlns="http://www.w3.org/2000/svg">
<g filter="url(#filter0_dd_391_487)">
<g clip-path="url(#clip0_391_487)">
<mask id="path-3-inside-1_391_487" fill="white">
<path d="M3 2H56.5284V17.2381H3V2Z"/>
</mask>
<path d="M3 2H56.5284V17.2381H3V2Z" fill="white"/>
<path d="M56.5284 2H56.0522V17.2381H56.5284H57.0045V2H56.5284Z" fill="#E0E2E7" mask="url(#path-3-inside-1_391_487)"/>
<rect x="7.76172" y="7.26184" width="44.0045" height="4.71477" rx="2.35739" fill="#D4D4D8"/>
<rect width="15.2381" height="15.2381" transform="translate(56.5283 2)" fill="white"/>
</g>
<rect x="3.25" y="2.25" width="68.2664" height="14.7381" rx="3.55952" stroke="#D4D4D8" stroke-width="0.5"/>
<g clip-path="url(#clip1_391_487)">
<rect x="3" y="19.238" width="100" height="105.573" rx="3.80952" fill="white"/>
<path d="M16.4426 28.3958C16.4426 28.7943 16.3244 29.1838 16.103 29.5151C15.8817 29.8464 15.567 30.1047 15.1989 30.2571C14.8308 30.4096 14.4257 30.4495 14.0349 30.3718C13.6441 30.2941 13.2851 30.1022 13.0033 29.8204C12.7216 29.5387 12.5297 29.1797 12.452 28.7889C12.3742 28.3981 12.4141 27.993 12.5666 27.6249C12.7191 27.2567 12.9773 26.9421 13.3086 26.7207C13.6399 26.4994 14.0295 26.3812 14.4279 26.3812C14.9621 26.3818 15.4741 26.5943 15.8518 26.9719C16.2295 27.3496 16.442 27.8617 16.4426 28.3958ZM19.1898 28.7621C19.1898 29.704 18.9105 30.6246 18.3873 31.4077C17.8641 32.1908 17.1203 32.8012 16.2502 33.1616C15.3801 33.522 14.4226 33.6163 13.4989 33.4326C12.5752 33.2488 11.7267 32.7953 11.0607 32.1293C10.3948 31.4634 9.94126 30.6149 9.75752 29.6911C9.57378 28.7674 9.66808 27.81 10.0285 26.9398C10.3889 26.0697 10.9993 25.326 11.7823 24.8028C12.5654 24.2795 13.4861 24.0002 14.4279 24.0002C15.6904 24.0016 16.9009 24.5037 17.7936 25.3964C18.6864 26.2892 19.1885 27.4996 19.1898 28.7621ZM18.4572 28.7621C18.4566 28.2198 18.3467 27.6832 18.1339 27.1843C17.9212 26.6854 17.61 26.2346 17.219 25.8587C16.8281 25.4829 16.3653 25.1897 15.8584 24.9968C15.3515 24.8039 14.811 24.7152 14.269 24.736C12.1124 24.8194 10.3927 26.6156 10.3986 28.7736C10.4007 29.756 10.763 30.7035 11.4169 31.4366C11.6832 31.0503 12.0215 30.719 12.4133 30.4609C12.4467 30.4388 12.4864 30.4283 12.5263 30.4309C12.5663 30.4336 12.6042 30.4492 12.6344 30.4755C13.1322 30.9061 13.7684 31.143 14.4265 31.143C15.0847 31.143 15.7209 30.9061 16.2187 30.4755C16.2489 30.4492 16.2868 30.4336 16.3268 30.4309C16.3667 30.4283 16.4064 30.4388 16.4398 30.4609C16.8321 30.7189 17.1708 31.0502 17.4375 31.4366C18.0947 30.7008 18.4577 29.7487 18.4572 28.7621Z" fill="#CBD5E1"/>
<rect x="22.0469" y="26.4044" width="44.0045" height="4.71477" rx="2.35739" fill="#D4D4D8"/>
<line x1="8.71387" y1="38.0477" x2="97.2853" y2="38.0477" stroke="#E4E4E7" stroke-width="0.476191"/>
<rect x="8.71387" y="42.0953" width="88.0091" height="4.71477" rx="2.35739" fill="#E4E4E7"/>
<rect x="8.71387" y="51.5719" width="36.1466" height="4.71477" rx="2.35739" fill="#D4D4D8"/>
<line x1="8.71387" y1="76.1428" x2="97.2853" y2="76.1428" stroke="#E4E4E7" stroke-width="0.476191"/>
<rect x="8.71387" y="80.1904" width="88.0091" height="4.71477" rx="2.35739" fill="#D4D4D8"/>
<g clip-path="url(#clip2_391_487)">
<g filter="url(#filter1_d_391_487)">
<mask id="path-17-inside-2_391_487" fill="white">
<path d="M8.71387 92.5242H97.2853V104.858H8.71387V92.5242Z"/>
</mask>
<path d="M97.2853 104.858V104.382H8.71387V104.858V105.334H97.2853V104.858Z" fill="#D4D4D8" mask="url(#path-17-inside-2_391_487)"/>
<rect x="38.0693" y="96.3335" width="29.8602" height="4.71477" rx="2.35739" fill="#D4D4D8"/>
</g>
<g filter="url(#filter2_d_391_487)">
<mask id="path-20-inside-3_391_487" fill="white">
<path d="M8.71387 104.858H97.2853V117.192H8.71387V104.858Z"/>
</mask>
<path d="M97.2853 117.192V116.715H8.71387V117.192V117.668H97.2853V117.192Z" fill="#D4D4D8" mask="url(#path-20-inside-3_391_487)"/>
<rect x="38.0693" y="108.667" width="29.8602" height="4.71477" rx="2.35739" fill="#D4D4D8"/>
</g>
</g>
<rect x="8.95196" y="92.7623" width="88.0952" height="24.1914" rx="3.57143" stroke="#D4D4D8" stroke-width="0.476191"/>
</g>
<rect x="3.25" y="19.488" width="99.5" height="105.073" rx="3.55952" stroke="#D4D4D8" stroke-width="0.5"/>
</g>
<defs>
<filter id="filter0_dd_391_487" x="0" y="0" width="106" height="128.811" filterUnits="userSpaceOnUse" color-interpolation-filters="sRGB">
<feFlood flood-opacity="0" result="BackgroundImageFix"/>
<feColorMatrix in="SourceAlpha" type="matrix" values="0 0 0 0 0 0 0 0 0 0 0 0 0 0 0 0 0 0 127 0" result="hardAlpha"/>
<feMorphology radius="1" operator="erode" in="SourceAlpha" result="effect1_dropShadow_391_487"/>
<feOffset dy="1"/>
<feGaussianBlur stdDeviation="1"/>
<feColorMatrix type="matrix" values="0 0 0 0 0 0 0 0 0 0 0 0 0 0 0 0 0 0 0.1 0"/>
<feBlend mode="normal" in2="BackgroundImageFix" result="effect1_dropShadow_391_487"/>
<feColorMatrix in="SourceAlpha" type="matrix" values="0 0 0 0 0 0 0 0 0 0 0 0 0 0 0 0 0 0 127 0" result="hardAlpha"/>
<feOffset dy="1"/>
<feGaussianBlur stdDeviation="1.5"/>
<feColorMatrix type="matrix" values="0 0 0 0 0 0 0 0 0 0 0 0 0 0 0 0 0 0 0.1 0"/>
<feBlend mode="normal" in2="effect1_dropShadow_391_487" result="effect2_dropShadow_391_487"/>
<feBlend mode="normal" in="SourceGraphic" in2="effect2_dropShadow_391_487" result="shape"/>
</filter>
<filter id="filter1_d_391_487" x="8.10787" y="92.2212" width="89.7833" height="13.5459" filterUnits="userSpaceOnUse" color-interpolation-filters="sRGB">
<feFlood flood-opacity="0" result="BackgroundImageFix"/>
<feColorMatrix in="SourceAlpha" type="matrix" values="0 0 0 0 0 0 0 0 0 0 0 0 0 0 0 0 0 0 127 0" result="hardAlpha"/>
<feOffset dy="0.302999"/>
<feGaussianBlur stdDeviation="0.302999"/>
<feColorMatrix type="matrix" values="0 0 0 0 0 0 0 0 0 0 0 0 0 0 0 0 0 0 0.05 0"/>
<feBlend mode="normal" in2="BackgroundImageFix" result="effect1_dropShadow_391_487"/>
<feBlend mode="normal" in="SourceGraphic" in2="effect1_dropShadow_391_487" result="shape"/>
</filter>
<filter id="filter2_d_391_487" x="8.10787" y="104.555" width="89.7833" height="13.5459" filterUnits="userSpaceOnUse" color-interpolation-filters="sRGB">
<feFlood flood-opacity="0" result="BackgroundImageFix"/>
<feColorMatrix in="SourceAlpha" type="matrix" values="0 0 0 0 0 0 0 0 0 0 0 0 0 0 0 0 0 0 127 0" result="hardAlpha"/>
<feOffset dy="0.302999"/>
<feGaussianBlur stdDeviation="0.302999"/>
<feColorMatrix type="matrix" values="0 0 0 0 0 0 0 0 0 0 0 0 0 0 0 0 0 0 0.05 0"/>
<feBlend mode="normal" in2="BackgroundImageFix" result="effect1_dropShadow_391_487"/>
<feBlend mode="normal" in="SourceGraphic" in2="effect1_dropShadow_391_487" result="shape"/>
</filter>
<clipPath id="clip0_391_487">
<rect x="3" y="2" width="68.7664" height="15.2381" rx="3.80952" fill="white"/>
</clipPath>
<clipPath id="clip1_391_487">
<rect x="3" y="19.238" width="100" height="105.573" rx="3.80952" fill="white"/>
</clipPath>
<clipPath id="clip2_391_487">
<rect x="8.71387" y="92.5242" width="88.5714" height="24.6676" rx="3.80952" fill="white"/>
</clipPath>
</defs>
</svg>
