<svg xmlns="http://www.w3.org/2000/svg" width="4" height="33" viewBox="0 0 4 33" fill="none">
  <path d="M1.95361 1.49012e-05C1.17218 1.4867e-05 0.538711 0.633488 0.538711 1.41492C0.538711 2.19635 1.17218 2.82982 1.95361 2.82982C2.73504 2.82982 3.36852 2.19635 3.36852 1.41492C3.36852 0.633488 2.73504 1.49353e-05 1.95361 1.49012e-05ZM1.76602 32.6025C1.86962 32.7061 2.0376 32.7061 2.1412 32.6025L3.82952 30.9142C3.93313 30.8106 3.93313 30.6426 3.82952 30.539C3.72592 30.4354 3.55795 30.4354 3.45434 30.539L1.95361 32.0397L0.452882 30.539C0.349278 30.4354 0.181303 30.4354 0.0776992 30.539C-0.0259046 30.6426 -0.0259046 30.8106 0.0776992 30.9142L1.76602 32.6025ZM1.95361 1.41492L1.68832 1.41492L1.68832 32.4149L1.95361 32.4149L2.21891 32.4149L2.21891 1.41492L1.95361 1.41492Z" fill="#A1A1AA"/>
</svg>
