<svg width="18" height="18" viewBox="0 0 18 18" fill="none" xmlns="http://www.w3.org/2000/svg">
<path d="M1.61089 8.85743C5.54642 7.14281 8.17074 6.01241 9.48377 5.46625C13.2329 3.90687 14.0119 3.636 14.5196 3.62705C14.6313 3.62508 14.8811 3.65276 15.0428 3.78401C15.1793 3.89483 15.2169 4.04454 15.2349 4.1496C15.2529 4.25468 15.2753 4.49403 15.2575 4.68105C15.0543 6.81573 14.1752 11.996 13.728 14.3869C13.5388 15.3986 13.1662 15.7377 12.8054 15.7709C12.0215 15.8431 11.4261 15.2528 10.6668 14.7551C9.47867 13.9763 8.80742 13.4914 7.65407 12.7313C6.32121 11.853 7.18525 11.3702 7.94484 10.5813C8.14367 10.3748 11.5979 7.23298 11.6647 6.94797C11.673 6.91232 11.6808 6.77945 11.6018 6.70929C11.5229 6.63912 11.4065 6.66312 11.3224 6.6822C11.2032 6.70925 9.30504 7.9638 5.62798 10.446C5.0892 10.8159 4.6012 10.9962 4.16397 10.9868C3.68194 10.9763 2.75473 10.7142 2.06544 10.4902C1.22001 10.2153 0.548068 10.07 0.606579 9.6033C0.637055 9.36023 0.971824 9.1116 1.61089 8.85743Z" fill="white"/>
</svg>
