<svg width="18" height="18" viewBox="0 0 18 18" fill="none" xmlns="http://www.w3.org/2000/svg">
<path d="M13.9923 8.81092L10.4851 7.51788L9.1892 4.00788C9.09011 3.73913 8.911 3.50722 8.67603 3.34342C8.44105 3.17962 8.1615 3.0918 7.87506 3.0918C7.58863 3.0918 7.30908 3.17962 7.0741 3.34342C6.83912 3.50722 6.66002 3.73913 6.56092 4.00788L5.26788 7.51788L1.75788 8.81092C1.48913 8.91002 1.25722 9.08912 1.09342 9.3241C0.929617 9.55908 0.841797 9.83863 0.841797 10.1251C0.841797 10.4115 0.929617 10.691 1.09342 10.926C1.25722 11.161 1.48913 11.3401 1.75788 11.4392L5.26506 12.7323L6.56092 16.2423C6.66002 16.511 6.83912 16.7429 7.0741 16.9067C7.30908 17.0705 7.58863 17.1583 7.87506 17.1583C8.1615 17.1583 8.44105 17.0705 8.67603 16.9067C8.911 16.7429 9.09011 16.511 9.1892 16.2423L10.4823 12.7351L13.9923 11.4392C14.261 11.3401 14.4929 11.161 14.6567 10.926C14.8205 10.691 14.9083 10.4115 14.9083 10.1251C14.9083 9.83863 14.8205 9.55908 14.6567 9.3241C14.4929 9.08912 14.261 8.91002 13.9923 8.81092ZM9.53584 11.2831C9.42131 11.3253 9.31731 11.3919 9.231 11.4782C9.14469 11.5645 9.07813 11.6685 9.03592 11.783L7.87506 14.926L6.71702 11.783C6.67481 11.6685 6.60825 11.5645 6.52194 11.4782C6.43563 11.3919 6.33162 11.3253 6.21709 11.2831L3.07413 10.1251L6.21709 8.96702C6.33162 8.92481 6.43563 8.85825 6.52194 8.77194C6.60825 8.68563 6.67481 8.58162 6.71702 8.46709L7.87506 5.32413L9.03311 8.46709C9.07532 8.58162 9.14187 8.68563 9.22818 8.77194C9.31449 8.85825 9.4185 8.92481 9.53303 8.96702L12.676 10.1251L9.53584 11.2831Z" fill="#18181B"/>
<path d="M11.9473 2.83453C11.7891 2.99276 11.7002 3.20738 11.7002 3.43115C11.7002 3.65493 11.7891 3.86954 11.9473 4.02777C12.1056 4.18601 12.3202 4.2749 12.5439 4.2749H13.3877V5.11865C13.3877 5.34243 13.4766 5.55704 13.6348 5.71527C13.7931 5.87351 14.0077 5.9624 14.2314 5.9624C14.4552 5.9624 14.6698 5.87351 14.8281 5.71527C14.9863 5.55704 15.0752 5.34243 15.0752 5.11865V4.2749H15.9189C16.1427 4.2749 16.3573 4.18601 16.5156 4.02777C16.6738 3.86954 16.7627 3.65493 16.7627 3.43115C16.7627 3.20738 16.6738 2.99276 16.5156 2.83453C16.3573 2.6763 16.1427 2.5874 15.9189 2.5874H15.0752V1.74365C15.0752 1.51988 14.9863 1.30526 14.8281 1.14703C14.6698 0.988797 14.4552 0.899902 14.2314 0.899902C14.0077 0.899902 13.7931 0.988797 13.6348 1.14703C13.4766 1.30526 13.3877 1.51988 13.3877 1.74365V2.5874H12.5439C12.3202 2.5874 12.1056 2.6763 11.9473 2.83453Z" fill="#18181B"/>
</svg>
